<?xml version="1.0" encoding="UTF-8"?>
<svg id="Layer_2" data-name="Layer 2" xmlns="http://www.w3.org/2000/svg" viewBox="0 0 10198.52 10465.29">
  <defs>
    <style>
      .cls-1 {
        fill: #f5e5e5;
      }

      .cls-2 {
        fill: #bc949c;
      }

      .cls-3 {
        fill: #633321;
      }

      .cls-4 {
        fill: #966e55;
      }

      .cls-5 {
        fill: #f8c88f;
      }

      .cls-6 {
        fill: #f0b25f;
      }

      .cls-7 {
        fill: #fbf8f8;
      }

      .cls-8 {
        fill: #f6e2e3;
      }

      .cls-9 {
        fill: #967c80;
      }

      .cls-10 {
        fill: #c18257;
      }

      .cls-11 {
        fill: #f4f1f0;
      }

      .cls-12 {
        fill: #965f3a;
      }

      .cls-13 {
        fill: #e9dddc;
      }

      .cls-14 {
        fill: #d79966;
      }

      .cls-15 {
        fill: #b6835e;
      }

      .cls-16 {
        fill: #5f301c;
      }

      .cls-17 {
        fill: #e7a54d;
      }

      .cls-18 {
        fill: #975f3a;
      }

      .cls-19 {
        fill: #d1bbc3;
      }

      .cls-20 {
        fill: #84353e;
      }

      .cls-21 {
        fill: #f4f0ee;
      }

      .cls-22 {
        fill: #602e1f;
      }

      .cls-23 {
        fill: #f7e3e4;
      }

      .cls-24 {
        fill: #96705a;
      }

      .cls-25 {
        fill: #8a6453;
      }

      .cls-26 {
        fill: #58261b;
      }

      .cls-27 {
        fill: #d4925f;
      }

      .cls-28 {
        fill: #f1e4d3;
      }

      .cls-29 {
        fill: #cbb7b9;
      }

      .cls-30 {
        fill: #ec8488;
      }

      .cls-31 {
        fill: #ca915a;
      }

      .cls-32 {
        fill: #6b3129;
      }

      .cls-33 {
        fill: #f6f2f3;
      }

      .cls-34 {
        fill: #592415;
      }

      .cls-35 {
        fill: #582a1d;
      }

      .cls-36 {
        fill: #cdb8ba;
      }

      .cls-37 {
        fill: #623f46;
      }

      .cls-38 {
        fill: #dc8f94;
      }

      .cls-39 {
        fill: #efab4d;
      }

      .cls-40 {
        fill: #d79865;
      }

      .cls-41 {
        fill: #f7e5e5;
      }

      .cls-42 {
        fill: #fefefe;
      }

      .cls-43 {
        fill: #5e2b1e;
      }

      .cls-44 {
        fill: #d56267;
      }

      .cls-45 {
        fill: #d2bbc3;
      }

      .cls-46 {
        fill: #bd949d;
      }

      .cls-47 {
        fill: #f8c789;
      }

      .cls-48 {
        fill: #f6f1ef;
      }

      .cls-49 {
        fill: #dc9096;
      }

      .cls-50 {
        fill: #c2353b;
      }

      .cls-51 {
        fill: #987058;
      }

      .cls-52 {
        fill: #602d20;
      }

      .cls-53 {
        fill: #c0353b;
      }

      .cls-54 {
        fill: #cdafa8;
      }

      .cls-55 {
        fill: #85363e;
      }

      .cls-56 {
        fill: #eea94b;
      }

      .cls-57 {
        fill: #d89966;
      }

      .cls-58 {
        fill: #d69865;
      }

      .cls-59 {
        fill: #d76368;
      }

      .cls-60 {
        fill: #956e55;
      }

      .cls-61 {
        fill: #d29260;
      }

      .cls-62 {
        fill: #6a322a;
      }

      .cls-63 {
        fill: #9f7155;
      }

      .cls-64 {
        fill: #612c20;
      }
    </style>
  </defs>
  <g id="Layer_1-2" data-name="Layer 1">
    <g id="Gunner">
      <g id="left-back-leg">
        <path class="cls-25" d="M3883.53,5971.87c-19.56,32.98-20.47,64.2-2.73,93.65,32.48,34.99,39.56,63.61,21.24,85.85l23.38,98.16c11.66,236.94-48.6,680.11-208.98,859.28-120.35,134.45-293.19,189.85-470.38,180.21-86.36-4.7-186.14-15.08-241.07-86.17l-32.66,3.13c-76.4-150.31-161.93-289.81-256.59-418.51-46.7-345.38,109.73-700.62,430.51-853.19,209.43-99.61,445.35-112.71,645.21.67,32.47,18.42,47.29,46.79,92.07,36.9Z"/>
        <path class="cls-52" d="M2715.74,6787.49c31.97,4.46,62.73,15.11,78.73,43.39l210.52,371.99c94.69,62.65,133.85,212.68,146.56,323.41,27.72,241.49-89.95,400.96-227.34,581.66-14.31,30.49-32.63,80.31-25.5,113.56,58.21,271.32,135.99,541.81,227.35,805.83,11.97,40.38,13.05,82.9,12.83,124.73l35.15,8.38c28.97,76.41,97.67,232.16,187.02,245.16,131.7,19.17,263,36.84,396.55,34.99,25.01,13.26,28.04,13.11,9.1-.43,4.84-102.32-23.19-200.42-84.07-294.31-3.19-23.59,7.5-30.97,28.08-36.89,107.26-30.87,216.72,227.59,186.31,319.47,43.47,4.46,88.11,1.51,133.95-8.85,4.68-92.41-11.84-183.73-49.56-273.96,21.19-63.57,73.34-27.65,109.62,8.1,59.24,58.38,71.99,143.81,78.38,222.4,59.52-263.23-168.92-387.75-409.97-370.2-36.99-48.76-96.66-137-50.95-187.54l-33.49-12.4c-47.27-157.13-107.42-467.31,26.92-587.32,377.57-197.25,606.69-319.23,596.69-811.46-8.48-416.85-161.46-818.34-377.4-1170.44l-19.18-85.4c-26.16-39.5-62.61-79.23-67.4-133.94-2-22.85,28.73-39.39,48.89-45.56,24.65-5.44,47.11,16.17,61.58,35.97,167.62,229.41,289.42,474.98,379.45,745.38,124.49,373.87,207.99,916.02-35.91,1222.29-130.09,163.35-300.94,265.79-489.42,352.34-83.05,114-2.16,368.03,41.19,542.82,146.42-2.96,276.3,45.22,365.27,139.25,91.03,96.22,123.68,226.44,112.86,361.76-6.88,86-56.8,153.82-147.93,170.4-296.54,53.96-609.57,70.25-902.8-24.04-105.4-33.89-173.89-165.53-212.81-263.31-120.32-302.27-204.91-603.11-283.16-917.84-24.89-100.13-33.72-213.39,23.46-296.48l147.1-213.74c88.74-128.94,96.76-294.27,23.5-435.76l-208.45-402.63c-36.38-70.26-32.22-130.53-41.72-200.79Z"/>
        <path class="cls-15" d="M3708.5,8818.38l-25.19,27.5c-216.57-3.97-405.78,132.34-507.7,318.35l-36.72-12.16c-105.37-285.94-191.05-581.06-263.5-884.81-23.31-97.75,14.59-179.69,75.71-251.11,226.27-264.39,219.83-520.07,53.9-813.27,206.03,84.33,451.02,84.61,632.17-59.57,256.16-203.88,239.32-673.21,264.88-991.92,271.73,410.27,473.64,950.96,417.18,1451.82-21.5,190.72-121.79,348.72-275.69,457.47l-318.36,178.87c-130.49,73.31-56.84,400.46-16.67,578.85Z"/>
        <path class="cls-36" d="M3708.5,8818.38c12.26,54.42,32.85,112.51,64,163.94,130.38-9.25,258.75,11.23,351.15,100.43,96.64,93.29,129.43,342.67,12.95,347.14,5.22-116.91-8.99-245.57-132.82-300.1,43.25,112.56,75.77,209.22,52.26,320.23l-192.69,17.68c17.94-138.23-13.87-295.64-161.13-339.08,67.79,115.77,117.39,211.89,89.56,341.2-143.14,1.17-289.94-7.65-437.03-34.92-107.14-23.43-174.19-169.7-215.88-282.84,18.74-7.27,29.33-21.47,37.42-38.61,80.92-171.59,338.05-322.56,532.2-295.07Z"/>
      </g>
      <g id="body">
        <path class="cls-64" d="M2841.05,7566.91c-80.8,98.18-156.29,191.6-266.87,248.87-153.68,79.59-330.26,102.12-502.8,80.78-419.23-51.84-705.67-386.38-748.1-798.93-23.44-227.99-6.96-440.17,32.94-680.95-328.6,253.06-717.4,357.56-1116.1,299.94-109.96-15.89-238.06-74.2-240.09-162.5-2.46-106.78,144.75-134.16,261.91-169.63l414.25-125.41c247.73-109.62,445.28-282.93,620.04-488.01,145.31-170.52,294.72-323.4,477.68-451.09,136.78-95.46,291.77-136.03,438.87-210.26,182.81-92.26,354.91-180.46,556.46-235.32,191.64-52.16,382.67-76.78,580.53-106.16l521.68-77.48,435.76-162.63c128.36-137.62,265.99-247.57,433.33-330.26,232.08-522.79,789.09-634.68,1329.78-624.51,458.18,8.61,891.23,124.69,1306.62,312.9,434.31,196.78,858.22,480.89,1094.51,898.3,84.96,150.08,102.88,306.84,72.54,474.36-26.5,146.32-52.37,285.85-119.41,419.31,96.15,520.22,75.13,1031.88-183.73,1496.6,19.92,428.19-50.89,969.98-474.27,1116.99-229.02,79.53-485.6,45.48-686.77-85.9-112.64-73.57-150.75-195.76-167.98-331.12-371.89,176.02-755.22,262.31-1160.87,287.41-23.1,239.72-178.82,421.79-406.73,479.12-148.38,37.32-295.95,40.67-446.82,8.29-269.74-63.82-416.08-277.9-429.91-563.16-260.21-68.27-505.96-163.62-755.49-272.69l-514.72-190.83c-110.91-41.12-225.75-46.11-356.23-55.99Z"/>
        <g>
          <path class="cls-41" d="M4275.3,7579.53l120.01,178.17c46.51,69.05,80.25,134.61,61.82,217.74l-567.21-207.37c-202.5-94.61-401.08-172.79-614.58-238.8-121.48-37.56-234.35-70.29-371.44-65.51l60.5-150.92c145.9-16.23,289.91-10.51,433.39,35.53l509.07,163.36c122.34,39.26,241.96,70.71,368.45,67.81Z"/>
          <g>
            <path class="cls-40" d="M5730.35,5716.55l29.23,36.45c-5.98,134.31,5.53,274.58,65.27,398.53,221.51,387.1,403.66,803.86,158.69,1245.19l-48.4,26.12-23.1-285.51-119.95-357.24c-23.78-70.82-61.23-136.23-134.25-176.62,141.52,406.02,263.63,706.82,72.34,1103.42-89.51,185.58-54.83,466.21-151.62,629.64-136.39,230.32-466.27,261.96-719.34,187.07-98.66-29.19-172.3-100.29-212.52-191.86-120.8-275.05-29.67-484.29-165.18-645.15-104.9-124.52-173.99-263.63-226.78-418.29-65.13-190.8-63.85-382.14-98-583.55-75.68,312.18-20.08,630.5,118.56,894.76-52.51,34.85-119.71,37.93-201.61,9.25-250.11-72.87-498.28-149.06-744.5-228.58-105-25.45-213.36-30.44-320.74-21.48l-44.06-25.87c49.82-179.78,100.58-363.99,63.68-567.17l-107.57,411.41c-68.47,189.96-150.1,382.83-319.86,505.95-287.01,208.16-694.71,161.82-942.67-86.21-330.32-330.4-255.98-971.59-113.15-1407.82,122.88-375.29,349.15-702.86,676.71-925.49,220.09-149.59,462.21-255.5,724.03-294.28l706.25-104.61c190.84-28.27,365.26-70.77,547.41-148.04-77.26,124.51-145.49,237.75-147.74,387.12,184.63-312.36,361.28-577.48,683.86-762.9,42.69,600.78,508.38,1106.78,995.01,1395.75Z"/>
            <path class="cls-58" d="M1159,6418.27c-256.1,161.93-569.29,231.29-878.6,196.15-62.85-7.14-119.41-26.93-166.02-63.5,75.97-41.87,142.84-52,216.96-67.47,299.99-62.6,586.69-176.34,805.69-391.4l292.93-281.51c9.26,7.71,23.4,20,20.16,27.77-81.86,196.64-185.55,396.56-291.13,579.96Z"/>
            <path class="cls-51" d="M1159,6418.27c-1.26-17.58-.36-41.34,7.17-56.78l172.77-354.15,91.02-196.81c102.04-159.23,252.29-307.57,421.21-403.48-217.07,260.65-378.53,515.18-445.61,829.62l-246.57,181.59Z"/>
          </g>
          <g>
            <path class="cls-41" d="M7626.61,6129.45c-28.02-1.33-26.77-11.94.54-19.2,176.98-32.21,350.84-90.31,506.37-181.65l24.01,24.32c-59.98,157.19-101.55,319.14-124.72,485.86,15.58,111.17-38.58,448.78-137.21,506.67-12.09,7.1-26.91,5.43-40.09,3.16-138.27,175.3-284.06,343.61-461.48,489.17-494.12,405.4-991.47,549.36-1626.01,614.59,4.94-111.56,38.76-201.27,68.38-300.1l98.73-329.42c162.97-283.26,184.06-631.34,33.44-924.94l-162.49-316.74c-57.28-111.66-76.27-227.64-77.93-354.9l2.19-109.71c389.24,231.14,945.75,412.42,1407.72,430.78,11.96,46.53,27.93,77.43,56.01,110.06-37.44,6.72-42.82-23.39-58.88-41.44-65.21-73.3-171.09-74.14-236.07-15.47-72.23,62.01-66.73,161.2-2.1,236.93-69.33,94.85-40.09,214.96,65.42,254.32,84.55,37.3,187.06-7.64,216.88-111.32l288.44-13.5c44.95,103.99,158.1,129.38,241.54,72.84,88.33-59.86,73.91-168.61,23.55-252.17,22.93-51.02,48.3-122.49,16.6-175.09-22.38-37.13-70.07-76.38-122.85-83.05Z"/>
            <path class="cls-14" d="M7161.54,8119.72c-24.47-18.84-29.23-33.3-14.27-43.4,334.77-275.44,547.37-662.72,707.78-1066.06,4.18-19.45,13.23-40.39.47-61.66,75.3-95.46,142.15-225.12,142.47-355.37.43-173.52,11.76-333.3,83.99-491.57l51.53-173.08,201.35-153.01c29.5,243.56,41.19,476.32,15.81,714.39-24.35,228.46-112.17,427.58-207.79,632.79-40.35,86.61,39.25,414.81-114.97,769.86-151.66,349.17-578.53,403.94-866.38,227.08Z"/>
            <path class="cls-24" d="M7161.54,8119.72c-107.88-66.28-129.85-173.36-143.13-310.02,317.34-178.34,590.17-415.9,787.01-722.7,18.37-28.63,20.08-63.19,49.63-76.72l-27.6,128.34c-105.17,263.89-237.43,513.89-422.76,729.52l-203.52,203.41c-15.67,15.67-42.91,20.95-39.64,48.17Z"/>
            <g>
              <path class="cls-39" d="M7296.25,6317.16c23.16,24.2,16.41,52.89-20.25,86.06-37.01,53.01-82.75,92.41-137.23,118.21-27.65,46.31-58.97,95.46-111.64,117.07-39.75.05-76.67-18.02-92.63-51.79-39.83-84.27,45.33-124.46,43.21-153-2.61-35.18-78.59-71.38-67.58-134.09,6.88-39.18,42-62.14,68.19-70.3,106.39-33.14,95.49,94.17,199.07,91.22l118.87-3.38Z"/>
              <path class="cls-56" d="M7409.34,6503.82c-5.73-6.81-9.85-12.69-8.34-15.3,28.51-49.33,153.75-242.15,190.17-270.39,15.49-12.01,29.76-17.54,50.04-15.92,26.49,9.42,52.08,34.77,57.83,56.4,20.13,75.72-96.12,117.93-38.72,164.17,36.9,29.73,60.94,69.03,48.73,109.5-13.24,43.87-50.88,71.29-90.18,74.1-54.1,3.87-84.43-31.21-108.3-82.03-16.5-35.15-73.02-21.87-101.22-20.54Z"/>
              <path class="cls-6" d="M7238.55,6193.83c135.31-30.75,135.99-277.38,75.89-428.2-12.76-32.02-41.97-46.95-65.07-68.71,67.91-28.91,112.65,10.05,142.81,67.81,66.17,126.7,50.66,281.93-16.67,410.49-26.25,50.12-95.59,64.01-136.96,18.61Z"/>
              <path class="cls-5" d="M7417.44,6306.04c11.38,5.99,15.72,15.24,18.3,27.1,2.56,11.8-108.36,187.23-149.32,179.55-45.6,2.03-95.01-2.06-145.16,12.94-18.24,62.12-55.12,112.79-114.14,112.87l198.66-223.37c27.93-31.13,54.64-61.23,70.47-97.97l77.62-8.27c10.5-6.07,31.54-2.64,43.57-2.85Z"/>
              <path class="cls-47" d="M7641.2,6202.21l-231.87,301.6c-8.12.38-18.74-2.37-26.09.47-7.39-1.88-14.3-4.33-19.51-8.78-10.97-9.35,65.36-162.48,81.33-179.62l32.63-9.5c41.65-26.34,30.49-87.74,78.61-107.55,25.49-10.5,57.78-6.28,84.91,3.37Z"/>
              <path class="cls-17" d="M7477.68,6306.61c-14.27,88.19-96.22,145.88-94.44,197.9-30.81,11.91-64.4,6.95-96.82,8.4l131.02-206.65,60.24.35Z"/>
              <path class="cls-54" d="M7627.15,6110.25l-.54,19.2c-83.52-10.56-143.82,39.91-197.5,123.85-12.03-50.62,30.09-75.67,44.54-115.11l153.5-27.94Z"/>
              <path class="cls-17" d="M7373.87,6308.89c-23.67,13.74-49.63,17.12-77.62,8.27,22.53-.64,48.86-21.45,77.62-8.27Z"/>
            </g>
            <g>
              <path class="cls-4" d="M7441.91,5691.77c-47.44-35.93-89.34-83.63-137.89-82.31-58.7,1.59-100.58,23.3-141.81,77.37-579.35-77.37-1163.06-287.94-1613.71-658.61-168.66-138.72-306.35-298.98-412.56-492.39,1.1-178.9,110.63-322.06,275.51-390.9,714.89-298.47,1925.7,85.63,2509.43,604.94,224.58,199.8,381.25,518.57,208.25,751.58-198.47,133.13-445.49,166.3-687.21,190.33Z"/>
              <path class="cls-60" d="M8312.93,5350.73c27.63-400.7-269.07-693.43-591.86-895.96-501.12-314.42-1070.36-503.2-1664.14-528.02-351.76-14.7-867.34,69.61-998.32,417.64-56.01-195.3-53.86-383.15,132.42-480.25,536.41-279.62,1245.86-188.4,1812.59,5.25,275.42,94.11,531.78,206.61,774.41,365.58,288.37,188.94,733.26,595.64,655,928.51-17.19,73.11-72.54,127.46-120.11,187.25Z"/>
              <path class="cls-50" d="M7275.18,6061.53c-257.16,8.87-499.69-40.03-745.21-108.9-567.82-159.27-1060.7-433.3-1415.65-909-145.94-195.58-241.71-413.81-276.32-655.79-15.75-110.13,10.15-213.86,91.01-289.36-10.13,365.45,208.54,706.37,471.43,943.72,323.76,292.31,704.21,486.63,1119.66,616.61,245.81,76.91,481.9,136.38,738.15,140.84,29.76,86.9,33.87,161.55,16.93,261.88Z"/>
              <path class="cls-53" d="M7508.45,6038.77l-20.91-249.88c336.38-27.5,686.73-126.26,916.04-386.1-25.34,208.72-161.18,362.69-340.03,457.4-167.57,94.47-345.71,143.98-555.1,178.59Z"/>
            </g>
          </g>
        </g>
      </g>
      <g id="right-front-leg">
        <path class="cls-57" d="M5771.72,7855.32c2.47,12.05,1.46,24.54-7.76,33-196.92,180.86-207.81,688.48-205.32,938.3,15.34,87.83,11.49,169.54-11.54,245.14l-42.36,21.77c-302.31-56.02-599.15,93.2-759.64,351.34l-44.8,16.62c-10.41,5.31-26.56,12.34-32.02,6.17-98.74-111.35-133.25-229-142.62-381.72-77.14-333.84-170.21-657.74-279.21-971.72-51.49-203.9-7.77-410.81,43.31-610.22,33.95-169.03,47.57-333.79,40.86-494.3,53.53-61.43,71.65-144.51,138.78-200.18,139.83-115.96,305.11-174.97,492.53-154.59,575.2,62.58,914.69,650.93,809.8,1200.38Z"/>
        <path class="cls-52" d="M4330.62,7009.7c22.21,18.32,41.78,44.98,38.25,80.1-17.01,169.06-25.01,334.04-67.42,497.71-44.68,172.45-68.56,343.51-26.06,519.04l116.79,362.44c87.45,271.4,165.1,538.01,192.06,821.31l116.08,171.18,33.84,6.25,93.43,270.43c12.64,119.55,483.74,192.18,515.62,170.34,49.03-33.58-1.62-299.21-44.94-353.58-3.98-40.88,25.12-45.32,61.53-37.56,113.08,24.12,149.36,294.31,126.21,390.18,8.89,14.06,265.25-12.82,301.71-23.27,13.75-3.94-15.81-250.31-43.48-280.25-45.04-75.31-71.36-171.4,40.74-121.68,99.92,44.31,134.91,256.13,132.08,355.46,66.96-.69,79.36-83.85,74.27-142.59-32.91-379.97-453.01-423.76-745.01-300.2-37.21,3.62-57.94-3.56-48.73-40.71,22.51-90.72,274.69-137,354.02-145.05-28.16-61.09-29.66-106.93-4.5-137.52-33.23-289.81-28.07-583.02,37.92-873.91,30.71-135.35,90.98-327.78,186.7-342.53,46.06,41.6,23.75,81.82,4.13,131.14-154.14,387.67-177.64,818.17-76.72,1226.31,104.97,37.48,201.29,66.24,283.17,139.51,125.78,112.54,178.49,296.01,138.49,457.88-21.91,88.67-77.45,144.84-165.78,170.85-327.99,96.55-681.84,97.74-1014.24,9.5-326.62-86.71-250.89-381.24-399.52-562.28-38.45-46.83-67.29-101.17-73.87-165.27-25.42-247.4-92.46-477.65-170.45-712.36l-112.61-338.91c-54.85-165.07-59.92-338.98-21.16-510.79,46.07-204.21,84.43-406.08,98.49-613.36,4.07-59.96,48.42-54.23,68.98-77.83Z"/>
        <path class="cls-1" d="M5547.1,9071.76l44.61,173.13c-145.77,1.61-280.82,23.81-382.84,128.54,116.45-26.86,207-73.07,323-73.33,143.26-.33,292.87,46.37,394.96,150.62,77.7,79.35,102.18,199.81,92.98,305.49-6.36,73.07-61.58,121.07-133.42,124.24,6.55-158.87-29.34-366.44-165.32-390.99,75.51,131.51,114.94,267.43,85.78,413.5-117.37,33.8-231.32,40.24-354.43,36.2,20.57-167.02,10.85-355.11-135.1-408.25,74.47,131.89,89.75,265.63,58.22,408.97-200.06-7.08-523.87-39.29-578.78-198.59l-96.46-279.8c172.31-303.63,507.74-469.51,846.79-389.73Z"/>
      </g>
      <g id="right-back-leg">
        <path class="cls-40" d="M3636.91,7143.3l-18.13-27.58c-46.62-147.69-108.64-301.87-204.06-418.3,148.72,348.27,237.76,760.7,196.56,1146.78-25.91,242.7-93.38,452.71-235.24,646.83-215.28,294.57-501.6,435.88-807.39,560.67-45.19,26.44-67.78,39.66-67.78,39.66,53.6-.74,106.95-8.1,160.04-22.09,18.05-2.84,16.51,8.04,12.31,25.7-59.18,140.38-7.29,291.37,51.42,421.96l45.26,93.99-5.67,11.5,1.64,16.87c-41.39,66.05-105.73,113.17-181.27,122.49l-207.52,21.75c-100.55,16.66-181.65,83.04-233.06,173.88l-16.9,9.25-10.55.84c-94.87-234.22-190.48-467.42-296.46-695.51-30.17-77.06-61.59-158.16-50.96-242.43,3.02-23.97,19.09-89.71,33.93-105.02,4.13-4.27,9.7-5.93,15.32-6.62l11.04-8.47c35.96,13.4,72.17,25.94,108.65,37.63l8.97,12.22,5.24,16.66c-30.73,103.24-1.36,219.99,75,292.65-62.91-114.65-77.68-199.81-26.62-323.71,6.34-15.38,25.88-54.46,41.35-51.72,8.57-17.9,12.86-26.84,12.86-26.84,68.6-77.09,163.48-185.23,138.13-298.37l6.05-11.67c-107.29-128.88-210-252.75-315.7-384.96-218.34-289.4-357.68-650.41-391.45-1018.16-35.56-387.25,88.34-758.34,280.69-1065.04l-4.6-8.8,157.61-129.97c172.65-124.66,372.58-197.43,583.37-206.05,157.76-6.45,310.68,21.06,452.21,92.65,205.56,103.99,399.1,330.74,490.63,546.41l91.17,214.82c51.14,152.17,78.96,308.09,94.71,468.31l-.79,77.79Z"/>
        <path class="cls-3" d="M2199.31,8556.29l-9.75,6.31c-67.08-40.78-131.96-85.24-194.62-133.4,12.52,164.66-33.72,315.04-135.15,439.82l-29.4,48.39-11.75.5c-37.66,63.99-52.18,139.29-33.49,215.1,13.28,53.86,30.37,104.36,53.16,154.97l119.01,264.26,170.04,414.41,6.41-1.99c26.2,64.47,50.17,131.22,71.93,200.24,12.7,36.89,40.53,64.97,72,84.93,120.04,76.16,315.33,109.74,454.99,110.87,62.06.51,89.71-25.91,98.41-90.59,18.11-134.71-39.52-220.7-125.99-308.84-10.06-28.27,13.85-24.24,33.87-20.37,109.69,21.19,173.38,181.85,177.98,287.73,1.5,34.53,1.58,81.51-14.96,109.76,63.13,8.02,246.17,19.04,255.88-73.41,14.9-141.89-24.3-270.55-125.16-368.78-6.95-11.07-4.39-13.39,7.33-15.22,30.49-4.75,95.55,49.14,117.55,73.49,71.87,79.53,92.12,195.33,84.15,301.58,75.98-4.76,85.32-80.07,73.9-149.08-28.36-171.38-116.94-283.03-281.28-316.1l-140.11-11.08c-14.57-2.18-28.58-7.03-41.54-14.34-27-15.22-85.72-97.71-91.92-128.57l3.67-14.48-48.61-100.94c-63.41-142.39-115.37-297.81-45.02-445.31-69.2,20.44-134.68,26.7-202.7,29.38,40.8-38.52,85.71-59.15,133.21-80.04l240.01-105.54c169.84-82.9,320.58-193.74,448.45-338.05,116.82-131.84,208.37-285.37,257.74-459.26,102.38-360.56,69.23-701.81-15.74-1061.88-23.64-100.16-60.18-191.62-97.12-286.35-13.26-34-31.03-63.59-34.86-103.42,34.37,24.2,54.22,57.37,75.51,92.72,71.16,118.13,126.15,246.31,161.8,379.57,34,127.08,53.33,257.47,63.22,393.07,16.89,231.58-10.87,459.94-85.56,677.15-101.7,295.78-328.94,548.09-582.86,706.87l-202.27,108.59c-17.26,9.27-33.89,19.9-45.78,36.07-46.62,63.39-63.6,142.39-49.78,221.52,8.42,48.25,18.91,93.9,40.12,137.49l109.69,225.45c9.11,18.72,25.7,25.35,45.6,27.46l131.06,13.94c86.62,17.54,170.32,54.82,231.53,124.43,81.84,93.07,125.88,217.3,127.57,342.86.84,62.3-18.89,117.55-61.11,157.12-42.13,34.68-90.93,50.45-143.73,58.63-37.64,31.73-78.83,52.81-126.12,63.2-77.93,17.42-155.84,15.7-233.65-5.53-47.94,24.44-96.42,35.23-151.38,33.47-152.12-4.87-303.09-37.13-441.49-103-73.97-35.2-130.25-98.22-157.13-176.17l-62.79-182.08-187.15-449.77-113.43-254.56c-75.44-169.3-88.3-331.8,29.98-478.16,123.73-153.11,141.42-320.93,112.32-516.23-237.55-282.16-390.36-612.93-451.12-983.56-38.61-235.49-41.73-404.37,8.95-638.9,44.07-203.96,131.17-391.72,265.92-546l60.49-57.35c2.55-.35,6.78-1.91,8.61-.62,3.13,2.2,5.07,11.55,2.32,16.53l-68.21,123.39c-178.11,322.22-253.73,665.83-196.14,1037.32,56.04,361.48,196.26,692.44,424.09,968.92l190.32,230.97c26.9,32.64,52.7,63.26,70.08,100.47Z"/>
        <path class="cls-28" d="M2127.37,9966.65c63.3-115.28,150.31-185.29,281.47-198.12l168.38-16.47c81.43-7.96,146.15-58.59,187.26-129.64l43.55,80.69c21.16,39.22,53.59,64.15,97.19,67.37l115.92,8.56c179.29,13.24,295.78,178.8,308.38,363.48,2.3,33.69-3.62,67.74-22.59,92.26-18.78,24.27-48.35,32.55-76.49,35.85,17.04-169.52-38.14-330.68-196.51-385,106.38,94.86,150.13,234.69,134.37,376.91-4.03,36.39-26.92,60.48-57.81,71.59-69.82,25.11-143.23,26.71-215.08,8.98,32.29-124.13-1.06-281.39-98.33-359.4-26.07-20.91-54.12-37.09-89.51-35.06l59.03,66.71c67.86,76.69,94.7,184.13,68.39,284.8-11,42.08-39.13,67.36-80.54,70.05-142.23,9.26-301.15-29.86-433.75-86.18-52.02-22.09-104.82-58.2-124.35-115.39l-68.98-201.97Z"/>
        <path class="cls-10" d="M2199.31,8556.29c45.88,98.22-76.14,262.09-157.04,336.88-3.62-8.1-5.43-12.15-5.43-12.15-33.65,8.08-62.33,39.86-76.93,73.41l-12.61,4.86c-49.76-7.12-88.77-34.84-128.66-41.38l21.07-35.8c27.88-47.36,63.91-87.47,88.79-137.7,51.3-103.56,66.28-217.91,52.06-338.34l160.65,115.96,58.1,34.26Z"/>
        <path class="cls-16" d="M2042.27,8893.18l-32.55,56.71c-39.73,79.55-40.17,165.96-4.99,246.8,15.04,34.57,35.85,66.38,42.97,103.25-105.1-80.18-142.16-219.17-100.39-340.64,16.42-47.76,54.95-82.32,100.45-95.32,1.96,12.62-1.16,21.66-5.48,29.2Z"/>
      </g>
      <g id="left-front-leg">
        <g>
          <path class="cls-57" d="M7723.95,9021.36l-21.95,9.43c-322.72-13.38-633.07,211.13-659.2,567.54l-8.71,13.45c-18.15,13.85-45.16-17.69-57.56-33.64-24.66-31.72-39.56-74.33-50.54-113.64l-37.72-180.99c-13.09-55.27-34.86-108.91-76.22-146.58-78.25-39.56-71.85-132.66-64.11-210.67l9.23-6.7,9.8-46.93c83.45-194.4,184.35-379.55,292.77-559.14,171.21-277.33,339.25-558.2,504.1-842.63,30.61-66.68,64.81-130.83,102.6-192.45l-4.95-9.18c38-51.62,72.31-105.66,102.92-162.14l118.36-125.02,220.1-235.05c96.11-102.63,183.27-209.63,269.38-318.51,1.49,5.84,2.79,11.7,3.42,17.65.62,5.87,1.14,11.62.27,17.09-55.59,349.02-232.81,639.05-438.31,908.73-3.3,3.2-20.99,36.52-19.04,36.42,37.15-1.78,140.42-108.4,171.12-140.32,9.94-8.91,14.68-4.47,21.66,4.64-10,266.21-55,548.38-168.41,800.84-77.1,168.3-148.22,337.79-210.02,513.84-44.06,125.5-69.84,273.1-23.45,399.73,10.43,11.54,15.25,22.96,14.46,34.25Z"/>
          <path class="cls-26" d="M7764.4,7107.09c-1.77,30.59-18.47,55.6-35.24,80.02l-62.73,91.31c-246.3,343.6-588.74,601.63-968.88,753.37,25.35,171.56,46.79,347.46,64.33,527.71,4.04,186.86,6.06,280.29,6.06,280.29,1.2,27.29-4.07,53.63-10.78,79.78l-2.65,114.26c-.74,31.92,15.26,59.86,40.37,77.31,128.2,89.11,100.05,265.98,158.85,407.21,17.25,41.43,42.43,79.4,80.35,93.43l6.79-7.76c175.52,72.76,377.46,88.9,569.25,87.24,39.08-156.82,7.48-313.26-100.14-427.22-8.14-32.27,8.68-27.5,32.44-20.57,153.42,44.78,205.46,298.61,166.39,444.08-11.35,7.22-10.48,7.47,2.6.75,83.35.18,166.02-10.42,248.07-25.04,32.35-155.61,4.42-315.83-91.19-440.7-9.24-25.89,20.85-17.91,37.14-12.9,123.27,37.88,176.78,298.62,153.56,418.95,68.5-24.89,87.06-59.99,85.49-137.8-5.58-276.52-142.91-412.15-394.65-448.72-16.12-2.95-24.76-9.86-25.9-20.73-16.03-15.27-27.2-34.21-33.12-58.17-29.91-121.03-11.53-239.57,26.53-357.55,46.37-143.74,101.69-278.97,164.57-415.73,116.52-253.42,192.27-485.37,210.78-770.17l9.89-152.08c-59.24,66.93-121.25,121.89-198,160.95,3.39-28.96,18.15-52.37,34.93-75.59,69.89-96.76,138.44-190.51,201.37-293.48,117.93-192.98,197.74-404.75,231.35-631.03,2.34-2.96,7.86-5.96,13.66-5.26l103.95,12.66c-38.73,263.16-122.7,482.36-262.13,703.68-13.07,242.82-21.18,490.93-93.4,723.84-41.35,133.35-92.51,257.39-148.13,384.61-50.13,114.68-99.78,224.38-142.71,341.99-37.46,102.62-72.38,226.34-45.62,330.45,194.09,34.12,359.05,130.98,430.9,331.82,36.7,102.59,49.15,213.99,31.75,323.13-11.05,69.3-58.21,121.69-114.66,153.44-138.1,77.69-332.11,79.63-489.13,85.34-206.25,7.51-444.89-2.18-638.21-78.01-71.84-28.18-127.4-79.38-162.47-152.14-24-49.79-35.84-102.71-46.86-158.19l-26.14-131.62c-7.61-38.3-30.12-61.18-57.96-83.95-52.68-43.09-86.6-104.89-85.08-175.4l3.05-140.98c8.52-163.73,3.5-322.02-18.04-484.78l-60.75-459.08c105.6-41.45,204.61-89.73,305.13-143.74,98.89-53.13,192.07-106.67,284.78-171.48,117.89-84.21,227.5-173.54,333.4-274.2l211.34-200.88c21.42-20.35,41.67-38.64,65.48-52.68Z"/>
          <path class="cls-1" d="M7723.95,9021.36l28.88,11.62c63.09,11.06,122.94,26.13,181.14,53.68,94.95,44.93,165.13,126.24,195.38,232.87,20.35,71.75,28.75,145.43,21.88,219.66-5.56,60.11-51.84,86.62-103.87,103.75,18.08-121.13.21-241.39-58.26-342.54-26-44.97-64.03-83.54-117.99-88.87,59.35,80.97,99.08,164.44,106.23,265,7.45,66.14,5.45,130.95-12.65,193.47-89.31,20.77-176.14,28.19-267.63,27.63,43.66-173.25-8.84-408.83-181.22-452.43-.97,14.54,6.03,21.15,11.98,28.46,22.97,28.29,46.65,54.04,62.91,88.13,49.94,104.72,58.2,225.05,23.61,336.6-165.05,7.64-326.39-9.36-485.16-51.43l-95.11-35.19c-2.5-49.44,8.06-95.61,23.22-144.81,56.15-182.19,184.85-325.18,353.64-392.98,101.27-40.68,206.93-55.15,313-52.62Z"/>
          <path class="cls-63" d="M6757.17,8919.57c5.1-179.97,2.35-358.83-21.99-539.79l-47.58-353.82c273.38-111.95,516.96-262.11,730.1-473.08,82.03-81.2,155.48-165.71,228.52-255.26,6.59-8.08,10.54-16.34,20.22-19.19-55.74,127.55-119.28,249.45-191.92,369.11l-346.32,570.54c-69.78,114.96-136.68,225.76-200.42,344.34-63.33,117.82-120.24,235.11-170.61,357.16Z"/>
        </g>
      </g>
      <g id="head">
        <g id="head-2" data-name="head">
          <path class="cls-22" d="M9860.4,4706.64c-51.68,74.95-121.79,123.77-198.49,166.71-22.78,12.75-33.63,42.09-44.6,65.37-68.87,146.17-134.98,289.81-229.97,420.88l-119.53,164.92-88.64,99.14c-27.94,116.82-71.11,227.68-151.11,319.38-96.24,110.31-218.79,187.99-358.57,236.17-375.08,129.3-822.26,84.21-1175.15-95.21l-178.38-99.23c-166.81-33.55-330.53-61.89-492-118.16l-219.7-90.95-227.05-122.56c-107.01-66.3-208.38-137.13-295.64-227.28-34.69-35.84-69.57-59.17-114.98-80.24l-194.36-90.17c-122.86-57-230.11-130.39-340.58-209.56-196.2-140.6-365.1-316.47-472.92-533.93-154.18-310.97-217.57-654.21-201.18-999.82,7.59-160.06,25.86-310.27,52.87-467.37l126.02-521.01-127.42-210.16c-96.93-175.55-140.95-363.51-137.72-563.71,2.86-177.5,31.11-344.93,92.84-510.63l106.2-249.78c98.34-198.84,200.46-390.48,315.34-580.43,77.06-127.42,206.04-324.91,328.59-388,53.06-27.31,114.82-30.37,163.4,4.9,36.51,26.51,65.92,60.99,86.15,101.23l125.1,248.89,142.4,276.6,99.13,167c6.64,11.19,32.62,8.07,45.88,3.04,283.51-107.59,580.98-153.7,884.59-136.4,150.01,8.54,291.44,31,434.7,72.96,36.07,10.57,70.15,13.95,107.9,4.11,216.9-56.57,438.9-79.21,663.21-60.92l137.83,19.91c73.11-132.05,121.01-270.28,178.79-408.02l79.86-190.36c42.58-79.06,131.1-105.48,208.74-58.59,68.93,41.63,125.4,96.42,173,162.52,61.98,86.07,114.29,173.37,164.59,267.53,117.82,220.57,227.25,568.3,265.36,817.11,3.15,20.56,23.22,39.36,36.45,53.96,76.89,84.82,141.51,171.5,205.79,266.02,124.78,183.48,198.34,388.14,208.84,609.88l16.86,356.21c6.01,126.96,34.68,241.94,87.1,356.61l105.76,281.4c108.44,288.51,60.48,620.93-23.12,911.79-31.74,110.44-80.75,205.52-131.04,306.98-41.49,83.72-65.85,171.08-121.13,251.27Z"/>
          <g>
            <g>
              <path class="cls-27" d="M8494.49,2844.08l-26.65-12.74c-70.42-70.86-123.11-199.51-157.25-292.51-51.14-244.59-99.2-490.65-144.17-738.19-18.55-71.34-42.14-141.17-68.35-210.06-31.28-82.2-67.54-174.23-114.47-246.79-22.68-35.06-65.05-84.55-111.02-64.85-68.58,29.39-40.33,182.68-29.05,240.75,59.75,257.76,111.06,523.32,133.58,789.53,18.2,215.15-11.64,484.77-171.33,638.84-213.92,71.94-398.25,208.47-551.49,376.91-78.4,86.18-142.03,183.27-178.81,288.53-5.18,16.15-7.76,24.23-7.76,24.23l-129.56,205.27c-146.73,235.07-391.26,353.66-665.33,296.63-20.13,3.12-34.84-.4-44.13-10.54-282.74-65.51-552.02,167.63-480.64,455.49l-4.96,27.59,13.58,1.88s17.33,89.74,51.98,269.23l-11.31,9.92c-.24.14-4.32,3.95-3.81,8.2,11.85,98.83,54.07,184.32,100.8,278.68-113.02-49.04-209.37-107.58-307.69-171.34-197.96-128.39-384.76-302.86-497.44-510.44-111.18-204.82-176.2-425.69-200.85-656.73-10.82-101.39-19.1-195.79-12.03-298.1,12.28-177.87,22-351.67,62.52-525.24l96.45-413.15c33.69-115.03,70.82-224.46,86.43-343.29,1.23-9.39-2.7-17.37-9.48-20.54-26.85-12.57-83.06,106.89-109.44,169.5-66.12-97.26-112.64-193.54-153.29-298.81-109.46-283.51-64.61-620.96,46.66-898.9l-8.33,267.92,14.36,18.94c7.8,94.75,22.96,190.25,57.66,279.37,11.98,30.75,87.76,178.31,111.14,180,17.94,1.3,97.39-73.89,112.18-92.11,143.39-186.23,298.77-368.66,466.15-547.29,21.36-23.37,34.02-54.09,35.99-85.55,18.37-293.56.22-546.52-72.51-832.45-20.21-79.46-38.11-127.27-91.89-183.13-18.43,9.55-33.03-30.18-20.18-44.38,20.37-21.32,40.73-46.2,73-56.93,29.67-9.86,51.67,4.19,67.81,27.93,51.61,75.89,84.19,156.04,121.57,240.55,83.67,189.2,188.91,362.81,300.32,536.54,12.78,19.93,19.34,39.37,43.24,50.96,525.31-218.24,1131.55-252.66,1651.8,22.29-7.36-55.94-46.06-95.74-97.87-128.26,460.63-110.92,857.21-55.32,1264,174.32,168.05,94.87,316.1,214.06,449.74,350.27,72.08,73.47,130.72,147.73,191.26,230.2,219.69,299.25,248.78,537.39,254.18,898.82,2.67,178.31,36.02,342.12,106.37,504.7l122.86,328.92c79.63,258.25,19.45,559.1-70.16,810.36l-29.13-166.25c-59.12-243.52-174.97-468.05-346.21-652.6-296.18-319.21-679.78-472.55-1109.04-502.11Z"/>
              <path class="cls-38" d="M5520.92,218.76l19.21,24.06c90.85,327.58,133.45,681.4,85.68,1030.39l-89.47,93.74c-151.91,182.91-300.17,364.78-444.77,545.6-9.95,5.42-18.24,1.64-25.34-7.03-64.46-122.47-125.31-257.59-132.39-402.95-.23-4.64,1.1-9.37,2.75-14.16,1.75-5.08,4.34-9.87,7.17-14.58-8.23-140.21,2.55-280.94,26.17-422.11l121.68-241.64c86.89-168.79,179.07-330.34,286.42-486.84,38.25-55.76,78.52-102.61,122.7-148.86l20.18,44.38Z"/>
              <path class="cls-49" d="M9248.32,1128.09c-106.15-77.03-211.65-145.52-323.9-208.14-12.93-12.8-16.32-27.81-21.11-45.26-41.25-214.9-56.29-423.2-19.29-644.26,56.56,48.81,96.61,102.87,134.63,165.72,129.51,214.07,223.81,443.47,285.68,685.56l28.34,116.87-84.35-70.49Z"/>
              <path class="cls-34" d="M4887.83,1480.97c2.68-8.55-1.54-21,8.54-27.95,3.37,16.98,7.11,45.46,24.38,44.81,6.7-5.89,13.18-23.87,23.01-24,9.63,95.37,27.22,190.93,63.36,283.01l74.05,149.65,253.15-315.75c90.06-112.33,174.27-221.84,280.16-322.7,28.55-264.27,23.56-528.07-30.27-789.01l-63.3-260.27c35.09,16.22,62.31,48,75.62,86.91,97.38,284.48,126.5,631.49,101.7,929.82-3.67,44.12-20.79,76-51.41,105.71-105.24,102.13-195.61,211.51-286.87,326l-151.89,190.54c-32.56,40.84-94.79,100.43-139.38,116.33-129.42-126.25-169.78-321.24-180.86-493.1Z"/>
              <path class="cls-61" d="M8830.1,866.19c-103.35-51.07-199.78-89.44-304.06-116.67l164.35-387.34,87.43-205.71c30.45,1.85,53.38,21.9,72.33,45.91-33.19,92.31-45.6,187-48.56,287.2-3.6,126.18,10.98,245.72,28.52,376.61Z"/>
            </g>
            <g>
              <path class="cls-8" d="M9390.91,4815.82l-21.16,11.23c-34.3-4.6-139.61-20.12-155.73-45.57-2.33-3.68-3.94-7.82-5.35-12.08-12.25,16.4-61.6-8.95-57.71-28.49l-11.87-25.91c-5.48-130.26-25.65-259.12-60.52-386.57-10.63-63.22-7.68-127.2,16.44-187.15l100.77-219.47c50.51-118.59,48.85-251.65,29.98-377.62,1.14-31.5.04-61.76-3.3-90.78l-13.19-17.8c-22.14-307.58-347.11-406.47-617.52-410.93-286.91-4.72-719.44,91.33-801.68,402.81l-14.82,12.77c-35.3,181.12-18.22,346.47,84.04,500.05l167.73,280.31c52.63,93.69,43.99,199.73,28.48,303.21l-48.53,220.72-18,20.57c-4.11,5.49-8.41,10.79-13.36,15.4-4.82,4.5-9.66,8.72-15.25,11.27-445.98,203.02-1012.95,120.03-1433.64-106.23-79.89-42.97-208.51-114.61-270.51-176.15-5.68-5.63-10.94-11.54-14.99-18.18-7.86-12.89,34.51-38.41,46.39-42.03,5.78-2.24,80.84-32.27,71.78-37.91-48.57-30.23-187.81,30.15-228.6,62.89-47.01,37.73-112.91,125.29-90.48,185.09,35.73-29.46,69.8-61.98,102.22-97.57,14.84-5.8,25.11-7.06,30.16,9.59,196.92,702.4,919.87,1095.54,1627.39,1105.96,205.81,245.55,521.57,314.03,825.4,232.48,176.7-47.43,300.86-130.49,364.5-304.78l20.27-163.71,135.53-303.62c15.78-33.48,33.83-65.72,54.05-96.77,18.6-28.55,94.21-133.37,117.47-140.86,8.88-2.86,104.74,3.05,121.11,4.81,1.64.18,2.89,3.92,4.03,8.67,17.09-3.56,66.26-13.68,51.63,12.78l5.26,4.91c-49.15,102.65-102.66,203.04-160.51,301.18-64.39,69.64-103.71,163.89-181.38,230.65-17.04-37.03-26.02-72.06-54.96-102.71l-36.2,240.79c-54.91,280.8-271.31,434.08-541.69,499.6-169.01,40.95-335.31,48.47-507.87,25.11-193.87-26.24-373.87-83.81-541.41-183.82l-170.61-101.84c-83.84-50.04-164.42-97.43-260.72-131.47,31.17,51.55,74.7,82.08,116.22,125.25-150.36-25.96-284.6-70.74-421.07-127.44-183.42-76.21-352.78-170.33-505.62-296.35-112.81-93.02-212.23-192.21-297.18-310.16l-139-206.74-54.26-281.03c24.84-159.94,61.27-319.91,213.24-410.9,36.68-21.96,219.04-88.11,266.25-79.56,2.41.44,4.33,3.53,6.12,7.39,31.84-7.36,67.79.73,103.98,5.25,158.17,19.77,315.57-16.24,436.09-119.85,65.5-56.31,120.25-117.6,165.79-189.83l122.3-193.96c4.77-7.56,10.07-14.58,18.64-17.21-3.53,8.72-5.74,20.15,2.8,28.07,179.49-259.69,435.52-513.21,735.34-617.66,233.36-81.29,479.45-114.76,726.78-98.81,188.98,12.19,366.52,66.89,536.31,144.8,165.39,75.89,310.75,178.03,434.18,309.16,230.34,244.72,382.76,577.73,369.99,913.84-3.45,90.92-20.17,175.36-57.24,258.2-75.89,169.56-248.48,275.74-432.71,264.75Z"/>
              <path class="cls-23" d="M8494.49,2844.08c-218.43-15.04-480.48,33.94-688.72,103.97-3.84-1.03-6.92-4.83-5.71-5.77l9.16-7.04c57.93-73.86,104.49-154.9,126.25-246.99,32.49-137.49,39.17-270.82,25.87-411.84-22.06-233.88-62.92-458.28-115.85-686.36-27-116.33-66.36-308.15,37.84-327.65,60.83-11.38,115.33,71.47,146.85,138.13,60.9,128.76,112.44,258.48,148.85,397.15l85.16,450.71,55,273.88c34.49,120.11,97.9,226.57,175.29,321.81Z"/>
              <path class="cls-43" d="M6228.67,4129.08l-157.74,36.49c-186.37,55.33-270.36,185.17-299.93,370.93-4.41,27.67-9.95,54.06-27.93,75.66-54.29-155.24,5.76-337.46,146.54-433.01,101.69-69.02,225.64-87.1,345.63-63.12l-6.57,13.05Z"/>
              <path class="cls-2" d="M7988.96,4765.12l42.82-187.92c15.93-68.83,23.07-139.27,22.09-210.78-.82-59.78-23.15-116.45-53.44-166.73l-152.55-253.2-72.27-140.4c-32.86-63.84-43.5-280.47-.38-365.82-11.99,113.64,45.2,224.54,131.75,299l107.8,92.73c41.87,49.33,80.95,93.61,136.33,129.72,110.71,72.19,230.68,124.91,359.97,157.05l111.32,16.17-29.68,297.25-258.31,154.8-217.49,119.67-127.97,58.46Z"/>
              <path class="cls-46" d="M9150.96,4740.92c-12.3,16.1-56.8-8.2-52.26-27.34l-206.55-136.22-225.78-137.19c19.95-106.72,23.24-205.78,28.29-309.8,106.21-50.69,198.65-108.85,285.55-183.14,141.55-128.36,239.92-306.28,242.24-493.81,11.96,8.14,3.46,25.57,6.21,38.77,23.45,112.6,31.17,224.97,9.41,337.86-24.65,127.9-124.91,262.22-146.57,368.34-14.65,71.74.91,144.55,18.41,215.64,26.97,109.55,47.95,215.62,41.05,326.88Z"/>
              <g>
                <path class="cls-35" d="M9222.45,3453.43c13.9,84.48-6.51,161.57-40.47,239.23-90.24,206.36-272.72,353.99-477.48,444.14,1.25,98.79-6.35,199.08-24.87,296.35,142.63,84.83,282.61,172.63,419.88,265.52l-.81,14.91c6.96,9.61,2.8,20.55-12.49,32.8-11.94,9.89-.38,17.68,34.7,23.37,48.74,51.22,72.79,51.73,72.17,1.53l15.59-1.87c56.17,27.73,119.22,42.66,182.24,46.42-19.19,27.39-45.87,45.92-82.1,54.77,5.66,13.07,15.18,18.4,24.14,18.93l169.74,10.06c16.51,13.02-.43,42.75-8.11,58.05l-58.36,116.28c-28.84,57.46-55.75,113.38-97.39,158.4.77-18,11.27-28.36,19.13-43.53l136.11-262.56c8.59-18.91-8.62-23.17-51.63-12.78l-119.34-2.95c-81.88,81.3-145.34,175.25-187.36,283.32l-113.79,252.67-19.46,161.61c-43.45,127.44-135.56,222.8-261.47,276.6-331.72,132.31-712.88,85.87-945.92-196.42-338.21-6.4-691.35-97.19-975.95-273.78-261.28-154.35-463.93-380.8-592.33-653.26-30.65-65.04-54.41-125.07-68.56-197.1l-78.65,79.32c-12.53,12.64-25.96,26.58-43.06,30.68-22.13-20.38-18.04-46.03-9.78-70.32,31.39-92.3,97.24-159.12,189.93-191.03,52.6-18.11,107.71-28.49,164.64-8.42-12.15,41.27-87.56,42.57-131.2,84.01,328.17,259.96,749.4,416.51,1166.75,404.39,201.5-5.85,393-45.87,572.05-127.67l15.81-21.38c197.39-94.35,388.94-200.55,574.65-318.6,12.26-93.79,20.76-187.03,25.51-279.74-221.3-28.11-458.07-127.34-599.53-304.55l-131.01-114.25c-71.86-78.91-132.62-176.75-99.16-286.33,8.92-84.57,60.65-162.03,127.93-219.08,126.31-107.11,279.83-163.79,443.72-190.29,184.37-29.81,368.39-28.14,545.65,28.12,187.4,59.48,332.31,200.99,329.92,394.41Z"/>
                <g>
                  <path class="cls-22" d="M9150.96,4740.92l57.71,28.49c-13.28,17.75,4.3,41.36-25.55,51.48-39.86,13.52-44.52-59.59-117.72-45.73-1.72-31.63,17.74-44.09,33.31-61.58l52.26,27.34Z"/>
                  <path class="cls-22" d="M9494.08,4926.24c.88-2.76,1.77-7.89.29-9.8-1.81-2.33-7.19-3.95-12.31-3.84l-39.61.86c24.39-11.18,59.38-12.89,59.74,2.12.11,4.48-4.28,7.99-8.11,10.66Z"/>
                  <path class="cls-30" d="M8824.96,5255.77c27.1,10.95,39.43,51.19,55.17,79.08,74.78,132.45,46.67,293.77-69.62,392.9-142.67,121.62-380.29,152.76-565.49,120.28-176.05-30.87-330.23-130.49-420.9-284.04l-76.5-129.56c-11.02-21.67,2.24-55.4,13.06-76.74,76.96-151.82,233.53-148.44,385.92-142.17,52.47,7.04,103.55,10.87,153.24,11.48,35.15,42.18,70.5,83.91,99.02,134.77,15.56,27.75,27.74,55.25,52.02,80.23-9.93-74.73-28.47-143.51-62.21-205.02-7.79-19.26-.69-24.4,14.72-35.19,82.99-58.08,308.14-17.87,395.43,29.52,10.37,5.63,20.14,14.35,26.13,24.45Z"/>
                  <path class="cls-55" d="M7467.29,5325.95c128.44,68.62,204.65,136.95,263.52,276.84-130.21-8.38-247.93-35.74-371.34-67.19-178.63-45.51-346.15-113.08-502.01-209.53-216.65-134.07-356.13-286.52-487.97-500.81-38.21-62.11-72.64-122.38-95.04-196.59,38.86,13.41,68.16,38.63,101.11,61.97,229.85,162.75,481.99,232.67,758.4,284.44,44.64,181.75,174.74,266.1,333.34,350.87Z"/>
                  <path class="cls-20" d="M9129.77,4843.65c29.85,7.24,55.9,19.68,78.13,37.34-.35,6.35-2.71,15.35-8.57,22.58-56.27,69.46-96.82,145.33-134.91,226.13l-86.3,172.77c-68.98-121.14-159.9-218.84-282.47-287.28,4.43-165.96-81.7-312.49-229.68-387.46,45.57-40.66,91.24-67.17,141.44-92.46,18.59-6.97,37.8-2.94,53.92,7.8l224.56,149.51c81.65,54.37,158.29,109.57,243.86,151.07Z"/>
                  <path class="cls-59" d="M8299.85,5227.01c-13,16.41-30.3,16.43-50.71,12.59-64.92-12.21-129.45-12.77-195.95-12.67-134.15.21-251.63,34.28-290.49,162.92l-15.07,44.59c-43.06-57.34-90.19-113.48-156.91-146.87l-219.24-109.72c176.1-117.39,351.91-180.78,557.99-155.5,149.49,18.34,277.47,93.16,370.37,204.67Z"/>
                  <path class="cls-44" d="M8824.96,5255.77l-92.8-37.5c-73.15-29.56-306.29-60.79-343.48,18.72-37.35-68.09-91.41-124.11-158.61-177.3,70.22-34.88,144.21-35.51,219.1-23.97,137.01,21.12,260.88,81.19,354.1,182.22,10.53,11.41,20.32,22.57,21.69,37.82Z"/>
                  <path class="cls-22" d="M9295.7,4825.42c7.87,4.43-.68,22.35-8.74,26.96-15.22,8.71-63.94-19.31-49.72-33.97,13.09-13.49,39.04-3.93,58.46,7.01Z"/>
                  <path class="cls-22" d="M9207.9,4880.99l-78.13-37.34c36.24,6.19,79.05,20.76,78.13,37.34Z"/>
                  <g>
                    <path class="cls-37" d="M8668.04,3558.99c-23.15,11.87-22.83,34.74-23.76,55.61l-19.55,439.35c-64.33.22-122.99-19.21-182.61-40.31-113.57-40.18-223-89.88-317.36-176.82,150.84,11.91,317.19-9.89,330.75-165.52,4.19-48.06,5.08-100.47-26.62-138.36-35.42-42.34-89.47-78.99-145.26-62.49-65.8,19.46-93.32,92.41-87.67,156.24,4.09,46.18-16.89,83.76-61.68,93.23-61.01,12.91-114.29-5.04-164.92-43.29-88.23-66.67-147.05-191.7-94.71-299.16,145-297.68,801.79-375,1096.56-209.05,172.78,97.27,245.08,321.02,125.97,469.97-17.41,21.78-69.69,8.95-83.1-8.42-15.77-20.43-14.27-43.44-11.92-67.52,4.67-47.78-13.36-100.77-62.32-118.12-53.02-18.79-137.13,70.63-135.43,170.38,1.03,60.3,23.77,118.6,77.89,150.05,44.5,25.85,93.27,21.09,148.72,15.97-86.5,104.4-215.51,218.33-341.33,258.83l-2.56-339.92c-.35-46.88-3.07-91.33-19.1-140.64Z"/>
                    <path class="cls-9" d="M8775.59,3317.12c-157.07,20.95-309.28,22.45-459.74-13.55-29.92-7.16-63.92-16.97-81.44-41.7-40.5-57.14,90.73-112.68,185.23-113.62l302.28-3.01c68.99-.69,215.52,32.12,218.51,87.17,2.91,53.74-90.7,74.81-164.84,84.7Z"/>
                  </g>
                </g>
              </g>
            </g>
          </g>
          <g id="right_eye" data-name="right eye">
            <path class="cls-32" d="M6825.39,2940.8c-170.84-29.77-313.1-140.52-407.67-274.5-50.84-72.02-62.07-151.14-42.27-233.27,72.39-300.16,277.67-523.27,578.89-569.25,228.64-34.9,467.34,69.39,581.92,282.72,83.5,155.47,117.7,334.51,117.14,511.24-.17,52.7-51.58,103.84-94.86,131.51-214.52,137.15-473.33,196.82-733.14,151.55Z"/>
            <g>
              <path class="cls-12" d="M7307.86,2615.18l-23.36-13.26-21.75-76.83c-23.19-34.03-42.22-68.36-57.1-102.98l-21.39-16.55c-5.81-146.89-147.55-274.63-287.66-225.74l-26.28-4.37-23.78,4.98c-96.13-87.1-219.25,40.72-131.85,138.41l-3.98,24.57c11.05,18.62,10.91,43.15-.43,73.57,5.7,37.45-.04,63.9-17.21,79.35,2.31,18.09-71.15,137.41-78.63,140.35-2.75,1.08-6,.79-9.39.06-5-1.07-9.82-3.01-14.6-5.19-89.81-173.4-50.36-388.23,94.64-515.37,145-127.13,356.07-131.95,506.33-11.56,150.26,120.39,198.81,333.22,116.46,510.55Z"/>
              <path class="cls-31" d="M7307.86,2615.18c-65.67,141.4-202.42,232.64-353.87,236.1-151.45,3.46-291.94-81.46-363.56-219.73,39.47-40.73,47.9-100.01,102.62-135.22l23.98,12.13c36.27,155.9,232.61,240.31,353.08,131.13l24.86,2.97c22.64-3.9,44-10.67,64.08-20.29l6.99-26.88c-10.66-17.91-15.21-35.08-13.64-51.51,12.57-33.05,22.99-67.9,31.24-104.55l21.98-17.23c64.3,40.75,91.42,115.77,102.22,193.07Z"/>
              <path class="cls-42" d="M7593.61,2598.04c35.09,175.61-330.97,290.42-529.03,290.11,248.87-83.04,374.69-350.91,296.42-605.43-8.12-28.66-14.22-54.04,22.67-44.11,119.84,32.28,208.59,239.32,209.95,359.43Z"/>
              <path class="cls-19" d="M7593.61,2598.04c-28.24-141.35-94.99-279.34-227.33-344.71-11.45,7.68-5.62,26.91-5.28,29.39-52.1-169.39-199.34-303.72-377-321.39,178.71-21.16,346.41,35.8,453.84,177.94,102.52,135.65,152.61,291.35,155.77,458.77Z"/>
              <path class="cls-7" d="M6506.86,2416.12l-3.18,41.66,7.91,67.23c20.14,110.75,70.13,201.13,151.33,278.89-81.69-34.75-138.88-96.63-190.72-164.51-19.11-31.13-36.18-61.73-35.42-100.7l42.54-138.77c17.53-15,27.66-6.53,27.53,16.2Z"/>
              <path class="cls-29" d="M6506.86,2416.12c-18.94-36.97-19.44,63.58-70.08,122.58,2.17-111.01,44.24-213.34,106.39-303.43-15.78,64.35-39.02,115.19-36.31,180.86Z"/>
              <path class="cls-29" d="M6511.59,2525.01c-3.88-21.37-10.14-37.97-7.91-67.23,13.99,15.41,10.86,41.11,7.91,67.23Z"/>
              <path class="cls-62" d="M7205.64,2422.11c-.42,52.96-23.8,127.39-53.22,121.78-11.71,13.97-27.27,25.98-46.66,36.03-2.24,21.67-5.83,42.55-10.77,62.65-56.12,78.3-181.7,85.51-272.88,36.65-59.95-32.13-115.11-100.33-129.04-182.89-8.32-49.3-8.32-107.29,17.64-152.92l19.99-12.65c81.9,39.79,172.92-48.75,128.55-133.89l11.08-21.41c17.2-21.7,44.78-28.72,74.59-28.97,149.16-1.3,261.91,126.87,260.73,275.63Z"/>
              <path class="cls-11" d="M6870.31,2175.45c37.11,48.43,23.26,115.67-14.15,152.13-38.71,37.73-102.11,47.98-145.47,15.83-59.15-43.86-60.86-133.5-12.32-180.78s128.27-44.15,171.93,12.82Z"/>
              <path class="cls-48" d="M7152.42,2543.89c30.18,16.33,47.09,54,23.95,90.47-14.63,23.07-56.25,32.99-81.39,8.2-17.73-17.48-20.78-50.41-6.58-74.65,11.49-19.61,40.3-28.55,64.02-24.03Z"/>
            </g>
          </g>
          <g id="left-eye">
            <path class="cls-32" d="M9646.8,2617.15c-178.39,275.47-648.45,291.14-991.38,163.72-73.15-27.18-164.74-55.34-196.76-122.85-34.89-73.57-23.29-159.35-18.35-239.5,8.97-145.4,59.7-287.81,178.5-395.54,163.95-148.67,415.97-191.19,647.39-125.68,207.55,58.75,362.31,214.49,410.84,410.13,26.13,105.36,33.37,211.5-30.23,309.72Z"/>
            <g>
              <path class="cls-18" d="M9318.77,2562.46c-19.12-8.43-27.62-24.82-25.52-49.16l-10.99-31.43c-27.9-34.42-50.17-69.4-66.8-104.93l-24.52-14.22c-13.38-136.71-168.77-241.82-325.75-191.01l-28.19-.62c-93.37-104.22-247.61,30.93-153.4,117.8l-5.32,22.51c13.25,17.17,14.23,40.21,2.96,69.1,9.04,36.56,4.68,63.64-13.06,81.24-23.32,30.59-51.04,60.23-83.15,88.94l-28.07-2.91c-64.83-99.37-58.67-204.3-3.34-307.21,72.75-135.31,215.11-236.5,399.03-232.87,170.42,3.36,312.96,101.62,375.68,231.8,52.46,108.88,53.05,220.26-9.55,322.97Z"/>
              <path class="cls-31" d="M9318.77,2562.46c-60.65,99.51-170.22,175.77-285.48,196.19-139.02,24.63-273.01-4.89-373.2-80.83-48.56-36.81-74.17-85.63-103.15-130.05l60.38-61.12c14.91-16.51,29.36-28.78,50.84-24.91l27.45,8.46c49.1,125.56,230.04,187.92,359.39,105.21l29.7,4.96c28.39-3.85,55.46-10.44,81.2-19.77-6.74-32.02-.96-51.81,17.33-59.38-29.39-22.66,1.05-107.6,32.22-124.28,64.49,43.4,113.76,110,103.31,185.52Z"/>
              <path class="cls-42" d="M9624.62,2460.01c24.33,114.25-128.71,260.53-283.39,308.13-87.73,27-176.96,41.28-274.07,30.23,147.43-38.48,254.75-126.12,313.06-249.37,44.3-115.05,41.76-244.3-18.43-350.1,38.72-27.68,103.33,13.44,139.14,37.58,85.02,57.33,109.96,135.2,123.69,223.52Z"/>
              <path class="cls-45" d="M9624.62,2460.01c-26.08-122.47-116.73-227.68-262.83-261.1-82.14-144.36-239.46-229.16-436.96-236.5,165.48-34.43,346.58-3.19,478.19,92.05,144.16,104.31,213.46,251.86,221.6,405.56Z"/>
              <path class="cls-13" d="M8619.85,2710.26c-90.71-18.84-145.49-90.46-125.15-163.74,28.94,66.4,69.08,109.98,125.15,163.74Z"/>
              <path class="cls-62" d="M9215.46,2376.94c.83,42.95-20.46,85.59-32.22,124.28-25.04,5.93-51.77,10.36-80.19,13.3-9.64,20.46-15.76,42.41-18.34,65.85-68.73,53.72-162.81,67.88-259.51,35.67-69.68-23.21-136.38-82.42-157.03-154.29-13.75-47.86-18.69-102.95,10.1-150.34l22.84-11.28c88.48,35.12,183.91-28.62,147.68-110.05l16.4-18.37c3.11-22.76,27.06-31.09,55.16-33.03,163.58-11.32,292.54,105.52,295.11,238.25Z"/>
              <path class="cls-33" d="M8865.19,2171.72c29.1,50.22,14.19,105.44-29.9,134.04-44.96,29.16-112.46,34.16-157.02,5.66-52.97-33.88-60.6-94.54-31.15-138.12,31.27-46.27,94.55-76.74,157.29-52.16,23.95,9.39,50.56,32.96,60.78,50.59Z"/>
              <path class="cls-21" d="M9183.24,2501.23c-6.5,21.37,31.29,58.57-11.63,80.91-23.14,12.04-61.75,18.47-86.9-1.76-24.67-19.84-23.96-61.33,3.12-81,23.83-17.31,62.87-12.98,95.41,1.86Z"/>
            </g>
          </g>
        </g>
      </g>
    </g>
  </g>
</svg>