<?xml version="1.0" encoding="UTF-8"?>
<svg id="Layer_2" data-name="Layer 2" xmlns="http://www.w3.org/2000/svg" viewBox="0 0 869.46 973.15">
  <defs>
    <style>
      .cls-1 {
        fill: #f7e4e5;
      }

      .cls-2 {
        fill: #9f5f5f;
      }

      .cls-3 {
        fill: #59291f;
      }

      .cls-4 {
        fill: #ab7751;
      }

      .cls-5 {
        fill: #f7e3e4;
      }

      .cls-6 {
        fill: #5d2c22;
      }

      .cls-7 {
        fill: #d4925f;
      }

      .cls-8 {
        fill: #967a7f;
      }

      .cls-9 {
        fill: #5f2e20;
      }

      .cls-10 {
        fill: #d98e93;
      }

      .cls-11 {
        fill: #e07c7c;
      }

      .cls-12 {
        fill: #5f4044;
      }

      .cls-13 {
        fill: #572617;
      }

      .cls-14 {
        fill: #be959d;
      }
    </style>
  </defs>
  <g id="Layer_1-2" data-name="Layer 1">
    <g id="face3">
      <path class="cls-9" d="M846.55,692.83l2.28,47.36c-1.18,30.24-6.9,59.37-19,86.88-5.67,12.88-13.46,23.24-23.53,32.61-14.76,13.72-32.96,20.87-53.77,18.09-7.89,30.02-28.49,47.67-58.54,53.49l-14.94,12.28c-16.72,11.36-34.97,19.6-55.18,23.74-66.28,13.56-135.31,3.38-194.95-28.05-4.91-2.59-8.31-1.94-13.54-1.23-51.75,7.07-104.55-1.68-151.1-25.21-24.1-12.18-45.12-27.04-63.74-46.35-4.78-4.95-9.55-8.44-15.88-11.3-44.61-20.1-90.79-49.74-122.87-87-22.92-26.61-38.44-57.35-47.69-91.21-6.52-23.89-12.01-46.94-13.42-71.91-2.66-46.82,2.73-92.61,12.51-138.25,5.04-23.53,10.18-45.61,17.91-68.29,1.46-4.27,3.35-9.8,3.37-14.2l-10.98-22.84c-6.01-12.51-9.89-25.02-13.67-38.46-7.21-25.6-8.45-51.56-4.22-78,5.47-34.23,18.58-72.71,35.08-102.99l37.7-69.19c13.02-23.89,32.66-53.52,54.72-68.21,10.5-6.99,23.55-6.03,32.25,3.02,4.7,4.89,8.56,10.23,11.6,16.41l23.71,48.19c6.87,13.96,13.64,27.14,21.56,40.48l9.01,15.16c44.31-16.11,100.2-23.51,147.13-18.29,21.84,2.43,42.43,6.35,63.39,12.77,48.18-11.1,90.73-16.01,139.62-8.94l9.11-17.59,18.09-43.79,10.33-25.81c2.46-6.14,6.26-12.24,11.81-16.13,15.31-10.7,35.01,4.67,46.86,19.43,32.23,40.14,49.92,85.41,64.13,134.71,4.35,15.1,7.77,29.37,9.81,44.98l30.02,36.19c11.06,13.33,18.73,28.15,26.34,43.7,8.51,17.39,14.2,35.14,15.62,54.45l3.65,49.65,3.51,46.06c.89,11.73,5.56,22.18,10.11,33.03,8.31,19.84,16.15,38.92,21.98,59.87,14.35,51.59,4.27,110.28-16.18,160.67Z"/>
      <g>
        <path class="cls-7" d="M565.66,457.62l.86-2.02,24.61-.43.33-.78c-7.69-9.56-14.45-19.69-20.29-30.4-8.96-31.22-15.47-63.16-19.51-95.83-5.27-26.94-11.93-57.14-22.36-82.27-4.42-10.65-19.01-44.66-33.47-41.44-7.24,1.61-8.25,11.78-7.6,17.93l20.4,113.55c4.5,33.82,7.13,74.01-3.33,107.08-3.17,10.01-11.05,25.46-20.13,30.87-.11.06.61-2.09.78.47-12.4,4.5-24.37,9.71-36.22,16.87-27.76,16.77-50.58,39.18-69.29,65.53l-11.85,22.79-2.2,8.42c-15.82,28.08-33.21,58.24-63.01,72.75-20.55,10-41.22,10.13-63.02,6.83-3.44.54-5.97,0-7.58-1.59-16.95-5.29-41.52,1.28-55.96,12.28-19.78,15.06-28.17,42.19-20.1,65.25l2.16.44c3.53,15.18,7.05,30.36,10.58,45.55l-1.68,1.61c-.84.25-1.67,1.01-1.58,2.13.56,7.28,1.85,14.3,4.32,21.2l5.44,15.12-13.26-7.4c-45.98-23.05-92.15-63.6-114.45-110.41-19.42-40.77-31.97-99.44-28.95-144.29,3.03-45.04,9.2-89.36,20.51-133.21,7.42-28.76,16.13-56.03,20.52-85.74l-13.26,20.26-15.29-35.68c-16.41-46.88-11.55-95.73,5.61-141.27,1.18,2.91.4,5.22.29,7.34l1.81,4.11c-1.13,35.9,2.16,77.77,27.93,104.56,7.41-5.82,14.27-12.22,20.58-19.2,22.31-29.79,44.92-58,70.67-84.55,1.7-2.82,2.7-7.19,2.91-10.49,3.27-51.43.99-103.61-19.24-151.68-2.33-1.91-3.46-3.93-3.39-6.05-2.3,1.71-8.17-3.34-8.24-6.01,3.61-3.88,7.36-8.43,12.73-10.94,5.01-2.34,9.92.64,12.34,5.37l21.62,42.25c8.62,19.45,17.93,37.66,29.4,55.56l15.23,23.77c1.66,2.59,4.31,2.85,7.2,1.83l22.26-7.81c55.08-16.2,112.87-18.08,168.59-4.24,19.8,4.92,37.44,11.68,56.05,21.62-1.79-9.61-9.24-14.35-15.37-19.62,12.69-3.86,24.89-5.03,38.02-6.67,34.11-4.27,67.82-3.03,101.07,6.24,67.97,18.94,128.63,66.47,169.14,123.66,7.86,11.09,14.66,21.52,20.18,33.96,5.68,12.82,12.15,25.18,13.6,39.35l4.51,43.99,2.18,45.02c.99,20.4,6.73,39.27,14.04,58.24l19.49,50.58c15.22,44.43,7.76,87.95-4.96,132.65-4.71-16.71-8.28-32.11-15.95-46.85l-25.33-48.67c-12.69-20.19-27.94-37.54-46.53-52.43-13.18-10.55-25.87-20.16-40.93-28.2-34.4-18.37-72.33-28.82-111.4-30.46l-32.25-.44Z"/>
        <path class="cls-10" d="M138.96,35.85c14.59,50.02,18.25,103.31,15.03,157.3-.23,3.93-1.96,7.81-4.68,10.66l-13.26,13.16c-22.44,27.71-44.54,55.15-66.28,82.34-2.7,1.46-3.36,1.03-5.3-1.49-7.53-9.79-14.76-33.87-17.41-46.4-2.12-10.02-6.24-40.64-2.34-48.65.41-.85.95-1.64,1.53-2.41,1.2-13.74,2-27.69,6.47-41.3l10.08-20.93,29.15-52.77c9.22-16.69,19.26-32.08,30.88-47.05l7.88-8.47c3.71,1.01,5.79,4.18,8.24,6.01Z"/>
        <path class="cls-2" d="M728.17,189.64c-12.84-11.16-25.13-20.31-38.81-29.06l-27.62-16.84c-4.06-20.96-7.39-41.77-7.48-63.57l3.13-42.75c11.68,9.88,19.06,21.28,26.55,33.7,12.09,22.02,22.5,44.26,30.69,68.12l13.55,50.4Z"/>
        <path class="cls-13" d="M37.68,199.13c.71-.13,1.74-.1,2.11.53l1.66,2.82c.89-2.33,1.37-4.38,3.63-6.84,1.17,1.42.85,3.21,1.18,4.71-3.05,35.07,3.38,67.12,21.13,98.63l8.61-9.68,37.97-48.94c10.32-13.3,20.54-25.74,32.94-36.99,4.15-3.77,5-7.6,5.34-13.07,2.38-38.53,1.4-76.65-5.88-114.63l-8.43-36.74c-.27-1.16,0-2.45,1.04-3.08,2.86,2.14,5.31,4.34,6.88,8.48,17.3,45.65,21.95,98.03,17.99,146.77-.44,5.47-1.34,12.13-5,16.09l-34.58,37.4-26.67,35.35c-8.56,11.35-17.82,21.4-30.01,29.62-5.22-3.26-8.9-7.97-12.02-13.29-17.01-29.03-19.56-64.29-17.87-97.14Z"/>
        <path class="cls-4" d="M649.06,136.48c-16.64-7.37-31.85-14.64-49.31-18.49l12-23.88,18.91-49.01c3.37-6.36,4.06-14.71,9.41-19.83,3.91-2.89,11.55,2.64,12.86,6.4l-4.7,11.11c-3.33,14.96-4.73,29.91-4.07,45.4l4.91,48.3Z"/>
        <g>
          <path class="cls-1" d="M721.82,845.17c-8.99-5.16-17.65-17.42-22.45-26.79l.95-2.23-1.1-4.63c6.19-22.02,8.34-44.43,6.47-67.21-3.8-16.25-8.15-32.27-13.04-48.05-1.94-8.99-1.84-18.54,1.26-27.26l14.7-32.91c9.02-20.72,8.22-42.44,4.25-63.97l-.22-14-1.89-2.8c-3.56-59.61-68.82-70.75-117.92-67.21-41.95,3.03-94.65,17.55-109.8,61.15l-2.59,1.74-2.8,25.82c-3.76,31.16,12.6,55.86,29.4,80.72,3.95,6.42,7.55,13.03,11.03,19.72,7.55,14.47,10.68,27.7,7.58,43.84l-13.31,65.31c-1.08,9.15-.31,18.43,1.79,27.39l-1.18,3.53c.3.75.73,1.91.28,2.29-72.14,60.62-171.59,71.82-245.88,6.04,1.1,15.06,12.82,25.1,25.13,32.67,54.16,33.3,126.93,29.18,182.58.13l5.57-.65,5.82,1.37c63.76,39.91,157.58,51.74,210.2-11.08l4.02-1.95c2.37-1.12,4.06.61,5.07,5.19,8.32,8.51,18.93,14.19,30.13,19.83-6.32,18.03-15.09,33.51-34.22,37.79,3.63-7.1,7.12-14.31,5.69-22.49-5.18,3.65-8,7.64-11.1,12.26-14.69,21.9-35.45,39.29-61.26,46.64-38.49,10.95-78,11.8-117.3,5-30.33-5.25-57.88-15.86-84.98-30.03l-22.35-11.68c-4.27-2.23-8.69-3.81-13.93-3.57,1.99,6.11,6.11,9.67,10.88,14.52-41.14,4.7-82.45-1.13-120.36-17.57l-28.69-14.48c-17.27-9.89-32.66-22.04-47.04-35.76-9.16-8.74-16.04-18.64-23.03-29.03l-20.4-31.67-11.06-47.6c-.58-.17-.92-.54-1.11-1.1-2.36-7.04,8.62-36.97,12.32-42.97,6.64-10.75,15.01-18.02,26.02-24.05,3.65-2,35.29-11.93,37.85-10.53.41.22.71.65.98,1.12,7.69-1.97,19.97,2.43,37.01,1.47,26.42-1.48,48.93-14.65,65.35-35.06,13.39-16.63,23.93-34.5,33.45-52.82-.25,2.3-1.1,5.11.43,6.81,3.8-3.05,4.45-6.95,6.91-10.11,24.67-31.79,41.97-50.35,76.2-72.65,22.86-14.89,57.83-25.72,85.16-30.03,40.34-6.36,81.14-4.52,120.28,7.75,17.06,5.35,32.99,11.67,48.24,20.84,28.45,17.1,58.24,42.02,75.38,70.54,12.53,20.86,23.35,42.18,31.73,65.12,7.7,21.08,12.09,42.39,15.33,64.6,5.83,39.98.82,80.03-15.24,116.97-3.6,8.29-9.35,15.23-14.98,21.98-10.81,12.96-27.43,19.9-43.91,17.53-12.35-1.78-23.27-6.22-32.31-13.73Z"/>
          <path class="cls-5" d="M565.66,457.62c-27.34.48-53.97,7.4-79.71,16.74-.52-.14-1.28.01-2.13-.65,11.19-10.62,18.82-24.83,22.02-40.55,3.44-16.89,5.52-33.63,4.99-50.99l-4.18-45.95-8-46-11.89-63.95c-1.81-9.74-.22-20.64,7.44-23.4,15.95-5.74,32.95,29.97,38.72,47.15l10.07,29.99c6.73,24.54,11.12,48.75,14.99,73.99,3.06,19.97,10.34,65.07,18.98,76.98l18.95,26.12-30.23.53Z"/>
          <path class="cls-14" d="M693.62,834.25l3.88,6.1c2.93.07,5.53,3.49,3.17,5.78-27.62,37.4-76.82,52.54-122.99,47.08-34.87-4.13-67.95-16.11-97.05-35.42l24.18-14.96,14.44,6.89c42.38,20.23,91.25,18.57,135.88,5.92,15.73-4.46,27.39-14.58,33.37-29.45l5.11,8.05Z"/>
          <path class="cls-3" d="M705.74,851.33l-5.07-5.19-3.17-5.78c1.29-.2,3.61-.55,4.96.21,2.36,3.01,3.57,7.13,3.29,10.76Z"/>
          <path class="cls-6" d="M232.78,665.96l-29.55,7.59c-23.33,8.24-38.5,27.46-43.11,51.93l-3.4,18c-1.42-.23-2.77-1.14-3.27-3.19-6.94-28.45,6.93-58.36,33.76-70.6,13.16-6.01,27.12-8.41,41.33-7.39,2.47.18,4.28,1.73,4.25,3.67Z"/>
          <path class="cls-14" d="M512.95,817.32c-3.27-12.29-4.22-24.84-1.56-37.46l11.3-53.76c2.9-13.81,3.29-27.34-2.69-40.29-8.36-18.12-18.93-34.32-29.75-51.04-17.34-26.8-18.15-54-9.82-83.77.74,22.28,3.16,37.3,20.62,51.91l14.12,11.82c25.97,31.04,63.56,45.11,102.94,49.97,1.88,24.87.31,48.81-3.75,72.85-2.79,3.6-7.93,5.32-11.54,7.66-12.29,5.39-23.22,11.91-33.07,20.95l-35.95,32.98-20.86,18.18Z"/>
          <path class="cls-14" d="M700.31,816.16l-10.11-15.5c-10.94-16.77-23.09-32.52-38.67-45.17l-24.22-17.04,1.93-22.92c1.45-17.17,2.7-33.91.76-51.36,46.61-17.47,79.54-56.21,82.63-106.05l3.2,20.02c1.62,12.66,3.11,25.22.68,37.86-3.29,17.09-10.6,32.22-18.15,47.48-6.11,12.33-6.31,24.62-2.45,37.48l8.34,27.78c4.95,16.48,5.67,33.21,3.62,50.42l-7.56,37Z"/>
          <g>
            <path class="cls-3" d="M712.64,558.12c1.95,16.89-3.67,33.57-11.53,48.35-14.43,27.1-40.51,49.16-69.6,58.58,1.88,13.01,2.09,26.17.62,39.48l-2.69,32.65c29.1,18.52,52.58,43.69,70.11,74.12l.78,4.85,7.98,12.47c3.99,6.23,8.09,12.03,13.53,16.55-6.42,1.07-8.22-7.36-14.4-9.59l-3.93.53c-1.08.14-1.98-1.61-2.98-2.78-1.94-2.27-5.05-1-6.9.92-1.76.61-3.42-.54-4.98-3.45-7.68,15.82-20.97,23.74-37.54,28.02-50.04,12.94-100.31,11.79-145.86-13.58l-21.75,13.14-2.84-.59c-34.03,18.23-72.35,28.1-111.74,25.83-30.92-1.78-79.64-16.75-97.5-41-4.69-6.36-6.35-14.56-6.38-23.01,20.93,21.66,46.18,35.19,74.44,42.98,25.48,7.02,50.28,7.64,76.26,2.49,28.15-5.58,54.21-15.56,77.18-32.75l20.05-15.01.28-2.89c19.95-17.48,39.8-35.33,59.55-53.53,11.02-8.23,22.73-15.16,35.15-20.78.82-.42,4.58-2.94,4.64-3.27,3.98-23.55,4.73-47.29,4.25-71.06-38.64-2.86-77.71-19.54-103.07-49.66-21.77-15.77-39.42-35.81-33.31-65.13,2.52-8.99,6.08-17.14,12.82-24.46,27.96-30.34,68.88-39.65,109.4-40.9,28.34-.87,51.46,1.35,76.26,15.43,21.12,11.99,35.23,32.84,33.72,57.05Z"/>
            <path class="cls-11" d="M517.06,832.99l24.48-22.01,13.4-11.75c18.5,4.06,33.71,14.13,47.29,28.53-1.19-13.13-9.22-23.11-19.95-32.34,30.79-5.48,73.76,12.83,71.89,46.85-45.88,12.17-94.75,15.34-137.1-9.27Z"/>
            <g>
              <path class="cls-12" d="M619.97,573.32l-.47,44.81-1.07,34.1-34.99-7.86c-16.76-5.82-32.19-13.76-46.26-25.17,15.15,1.97,29.29.96,40.64-7.72,14.6-11.17,17.25-31.08,5.4-44.71-8.02-9.23-21.51-11.5-30.59-2.69-10.24,9.92-3.16,26.14-8.87,32.54-2.07,2.32-5.31,3.79-9.03,3.57-23.57-1.43-40.6-16.3-41.34-39.99-.83-26.47,21.76-38.32,43.37-50.03,11.26-6.1,22.78-9.47,35.62-10.55,28.1-2.36,72.3-5.38,94.8,8.08,8.4,5.03,16.09,10.01,22.29,17.9,12.78,16.29,13,38.49,6.2,58.42-5.2,5-14.16,4.42-18.57-1.05l-.65-14.43c-.19-4.26-1.75-7.74-4.7-10-7.35-5.64-20.65.11-25.36,10.28-3.51,10.41-2.86,21.6,2.24,31.39,8.78,10.7,22.49,12.91,35.89,6.61-13.34,21.46-33.75,35.82-56.66,44.51l-.49-41.8-4.47-36.34c-.31-.89-1.07-1.82-1.63-1.86-.52-.04-1.38.96-1.3,1.97Z"/>
              <path class="cls-8" d="M667.01,519.67c2.07,20.88-108.26,22.39-114.19,4.71-1.92-5.72,11.38-14.38,24.17-16.15,20.2-2.79,40.32-2.78,60.71-.95,10.76.97,28.6,5.28,29.31,12.39Z"/>
            </g>
          </g>
        </g>
      </g>
    </g>
  </g>
</svg>