<?xml version="1.0" encoding="UTF-8"?>
<svg id="Layer_2" data-name="Layer 2" xmlns="http://www.w3.org/2000/svg" viewBox="0 0 869.54 951.66">
  <defs>
    <style>
      .cls-1 {
        fill: #57281f;
      }

      .cls-2 {
        fill: #5f2e21;
      }

      .cls-3 {
        fill: #aa7650;
      }

      .cls-4 {
        fill: #572718;
      }

      .cls-5 {
        fill: #d88e93;
      }

      .cls-6 {
        fill: #d78d93;
      }

      .cls-7 {
        fill: #f7e3e4;
      }

      .cls-8 {
        fill: #5e2c22;
      }

      .cls-9 {
        fill: #957a7f;
      }

      .cls-10 {
        fill: #d39562;
      }

      .cls-11 {
        fill: #603f44;
      }

      .cls-12 {
        fill: #be959d;
      }
    </style>
  </defs>
  <g id="Layer_1-2" data-name="Layer 1">
    <g id="face4">
      <g>
        <path class="cls-7" d="M697.48,804.2l-1.06-5c8.27-35.01,1.11-67.79-7.47-100.58-2.83-14.08,0-28.04,6.27-40.72,8.05-14.12,14.2-28.98,18.43-44.58,1.5-12.94.98-25.95-1.57-39.04.55-7.94.53-15.76-.06-23.44l-2.07-2.15c-8.41-49.65-59.89-61.51-104.3-60.9-46.46.64-108.3,15-124.28,64.2l-2.47,2.08c-3.93,25.53-5.7,51.25,8.82,74.44l19.99,30.85c12.34,18.76,23.24,38.48,18.67,61.33l-11.38,46.76c-3.12,13.53-4.08,27.48-3.1,41.32l-1.62,4.59-24.04,17.27c-22.13,15.89-47.81,25.55-75.25,28.5-15.97,1.72-31.23.43-46.76-2.11-22.37-3.66-41.67-12.85-59.08-27.03-15.32-12.47-28.63-25.65-40.58-41.46-11.09-14.68-21.62-29.18-29.5-46.36,8.77-6.9,23.92-8.93,21.28-12.94-3.73-5.66-26.59-4.68-39.76,5.64-9.57,7.49-20.6,27.41-13.5,36.85l17.88-19.91c9.91,16.93,18.16,33.99,31.3,48.07l28.99,31.06c12.55,11.46,25.88,22.07,41.56,29.43,32.25,15.14,69.2,18.72,103.97,11.8,27.62-5.5,51.86-16.51,74.59-32.58,25.42-17.97,48.79-37.15,71.33-58.6l41.78-39.78,24.9,21.55c13.99,12.11,27.18,24.33,37.12,39.89l20.26,31.72c8.65,15.7,21.07,27.13,37.83,34.56-10.65,17.87-21.87,22.76-41.75,24.58l8.07-13.29c2.15-3.55,2.13-8.23-.27-11.92-3.96,2-6.78,5.43-9.54,9.1-17.41,23.17-41.04,39.37-69.13,46.84-22.91,6.09-45.25,8.52-69.07,8.78-38.35.43-74.86-6.59-110.54-20.15-10.17-3.86-19.63-7.44-30.69-9.08,4.27,6.38,10.11,9.01,16.59,12.78-34.28,7.09-68.67,6.1-102.86-1.67-37.55-8.53-72.47-26.66-101.5-51.67-14.21-12.24-26.78-25.23-36.6-41.35l-20.42-31.81-10.1-43.82c-.33-1.41.07-3.2.24-4.09-.72-.35-1.81-.88-1.76-1.47,2.63-29.56,15.18-55.65,43.98-67.62,6.09-2.53,24.1-8.39,30.22-8.71,1.27-.07,2.59.4,3.66,1.08,4.28-1.16,9.61.26,14.58,1.15,33.76,6.04,66.71-6.86,87.57-34.23,12.32-16.16,22.21-33.54,31.34-51.34.8,1.06.34,1.93.35,2.41l.05,2.25c.01.67,1.63.6,2.16-.2l6.85-10.21,19.66-23.32c11.53-13.67,24.26-24.72,38.29-35.71,18.99-14.88,39.33-25.46,62.35-32.7,61.55-19.37,125.88-18.57,185.25,6.87,18.13,7.77,33.85,16.84,49.49,28.74,19.69,14.98,36.82,31.73,49.85,53.16,12.35,20.32,22.81,41.12,31.45,63.35l11.48,42.73c4.35,16.19,5.95,31.94,6.47,48.91.93,30.62-3.58,60.56-15.54,88.83-4.72,11.15-11.84,21.27-20.06,29.57-13.1,13.24-31.06,16.39-48.19,11.19-13.65-4.15-24.11-12.17-31.76-24.59l-17.27-28.06Z"/>
        <path class="cls-7" d="M567.83,457.67c-28.12.52-55.33,7.16-81.82,16.56l-1.54-.09c-.61-.03-.83-.71-.11-1.04.33-.15,1.04-.59,1.49-1.09,8.29-9.19,14.35-20.02,17.71-32.26,6.05-22.02,8.83-44.69,6.39-67.53l-3.4-31.8-9.11-52.83-11.47-62.36c-2.16-11.76,1.99-22.67,10.58-23.02,3.8-.15,7.67,1.07,10.63,3.94,7.9,7.65,13.55,17.27,18.33,27.44,18.46,39.33,25.09,77.51,31.92,120.02,3.12,19.45,9.45,63.81,17.26,74.87l20.26,28.68-27.11.5Z"/>
        <path class="cls-12" d="M615.07,667.19c-.33,19.88-1.6,39.98-5.06,60.02-1.52,4.16-6.63,7.43-9.81,10.19l-35.37,30.71-43.79,37.13-10.78,8.12c-1.59-16.36-.7-32.4,3.3-48.56l9.88-39.95c3.86-15.61,1.78-30.45-5.76-44.39-8.54-15.79-17.95-30.11-27.97-44.97-11.92-17.66-17.59-37.88-15.42-59.02.81-7.89,1.42-15.68,4.59-22.4l2.09.61c.29,12.47,3.2,23.87,8.73,34.21,8.07,9.21,16.85,17.62,26.32,25.21,23.66,27.78,59.96,46.52,96.09,50.95l2.94,2.14Z"/>
        <path class="cls-12" d="M697.48,804.2l-16.89-22.74c-16.84-18.13-34.91-34.2-54.11-49.7-2.87-2.32-4.2-4.77-3.88-8.62l3.56-43.08.31-13.61c29.84-12.54,54.27-30.67,70.7-59.17,9.98-17.31,15.73-36.48,14.83-56.45l1.06,2.31c-1.64,19.56,7.14,42.3,1.95,63.23-8.89,35.84-31.95,49.75-23.22,86.02l8.13,33.82c3.68,22.94,2.14,45.57-2.45,67.98Z"/>
        <path class="cls-8" d="M233.11,665.41l-8.73,2.36c-11.08,3-22.05,5.15-32.13,10.75-17.7,9.83-28.39,27.06-32.11,46.92l-3.13,16.7c-.6.73-1.65,1.27-2.15.64-.45-.56-1.33-1.3-1.59-2.27-5.99-22.75,1.79-46.63,20.08-62.11,14.68-12.42,34.33-17.47,53.48-16.41,2.77.15,4.95,1.57,6.27,3.41Z"/>
        <g>
          <path class="cls-1" d="M712.01,550.84c5.8,53-37.16,98.14-83.57,117.02l-.25,10.89-2.03,1.31c-2.88-1.88-6.24-1.99-10.26-1.4l.1-9.57c.01-1.07-.45-1.75-.94-1.91-25.96-.73-56.78-15.51-78.35-30.68-8.65-6.08-15.27-13.16-22.1-21.01l-15.95-13.98c-8.9-7.8-15.96-16.87-17.4-28.74l-2.38-18.72c5.31-30.19,40.21-52.26,69.6-60.33s61.05-9.83,91.74-5.98c13.2,1.66,24.7,5.86,36.06,11.99,19.3,10.43,35.6,30.55,35.71,51.09Z"/>
          <g>
            <path class="cls-11" d="M621.99,571.66c-2.98-3.23-2.78,11.08-2.97,20.57l-1.27,63.21-16.58-3.6c-24.4-5.3-46.04-16.96-65.44-32.35,20.11,2.79,42.4-.19,50.96-18.59,6.37-13.69,3.18-30.65-10.39-39.07-5.69-3.53-12.39-4.21-19.08-1.27-4.81,2.12-9.35,7.68-10.69,14.22l-.91,14.22c-.35,5.56-3.48,11.12-9.74,11.19-11.96.14-24.04-3.92-32.56-12.38-5.58-5.54-8.74-13.19-10.22-20.61-3.27-16.41,3.6-30.8,16.5-40.4,9.09-6.76,18.48-12.21,28.56-17.42,12.06-6.24,24.31-9.04,37.89-9.95,19.58-1.31,38.52-2.39,58.1-.74,18.12,1.53,34.1,7.12,47.92,19.69,18.11,16.46,23.24,44.03,12.25,66.26-3.25,4.07-11.73,3-15.28.76-3.94-2.49-1.17-11.26-3.85-21.44-1.61-6.13-7.86-9.62-13.95-7.46-11.36,4.02-17.74,14.69-17.35,26.64.25,7.48,1.32,14.91,6.86,20.28,8.6,8.34,21.45,9.34,32.28,3.38-2.67,6.43-6.93,10.62-11.36,15.17-12.37,12.73-26.72,23.06-43.6,29.38l-2.56-55.56-2.64-22.48c-.07-.62-.65-1.41-.89-1.67Z"/>
            <path class="cls-9" d="M666.58,519.92c3.21,20.59-110.33,21.91-113.94,4.66-1.24-5.95,11.67-14.59,23.64-16.2,21.31-2.86,42.62-2.95,64.01-.53,9.8,1.11,25.25,5.36,26.29,12.07Z"/>
          </g>
        </g>
      </g>
      <g>
        <path class="cls-4" d="M139.13,36.14c1.99-2.05,5.37,1.96,6.3,3.85,21.57,43.78,22.31,104.95,19.77,152.99-.28,5.21-1.57,11.13-5.08,15.14-21.92,21.5-42.34,46.56-60.79,72.37-3.55,4.5-24.64,29.42-31.05,30.45-1.95.31-3.62-.2-5.19-1.39-16.43-12.42-25.9-52.03-27.27-71.83-.05-.69.24-1.41.56-2.17s.77-1.49,1.26-2.19l-.68-10.17c-3.19-.92-3.09-11.72,0-13,.28-3.66.5-7.4.67-11.22l-1.32-.88c-7.78,24.95-13.5,50.66-13.36,76.96l-1.94,5.73c.05,2.06.61,4.62-.99,6.6-.03-9.22.29-17.45-2.1-25.71l3.81-21.5,4.26-33.04c-2.27-.56-4.78-2.04-7.06-1.78-2.67.3-3.95,4.04-4.42,6.09l-.9-2.93c1.77-6.11,3.18-11.86,5.3-17.47,2.17-1.21,2.81.03,2.94,2.25-.19,11.08,9.24-16.02,1.53-8.29-1.53-.48-1.72-1.92-.56-4.32,5.43-14.38,11.8-27.74,19.04-41.17,1.41,4.75-2.6,6.74,3.47,12.35.37,2.24-2,7.68,1.93,8.76.95.26,3.46-.58,4.19.54.72,5.42.24,11.13-1.45,17.13l-1.71,17.03-2.28,3.66c-.72,1.83-1.03,3.78-.93,5.85l-2.78-.56-.33,24.83c-.37,5.5,1.08,8.45,4.36,8.85l2.52,3.98c2.68,18.5,9.52,36.05,18.03,52.62.04,5.11.65,5.16,1.82.13l15.61-19.52c19.68-27.65,41.01-53.43,63.99-77.35,6.58-53.39.45-109.24-12.89-159.54.22-3.36,1.17-4.84,3.72-2.16Z"/>
        <path class="cls-2" d="M18.92,191.06l3.91-10.36c-.08.62-1.04,2.13.46,2.79.51-.49,1.81-2.54,3.08-2.33.93.16,2.64,2.02,2.28,3.41l-2.92,11.43c-.34,1.31-1.84,1.7-2.56,1.92-1.03.31-3.16.16-3.26-1.87-.09-1.77.28-3.8-.99-4.99Z"/>
        <path class="cls-10" d="M567.83,457.67l.87-2.02c7.52.09,14.89-.2,22.12-.86-7.63-10-14.59-20.42-20.88-31.25-8.23-30.15-14.31-60.94-18.25-92.37-6.84-36.47-15.02-76.59-34.28-108.65-11.37-18.94-28.76-29.67-29.88-.7l21.01,118.33c5.22,39.99,9.62,98.42-18.94,130.6-1.07,1.2-3.12,2.49-4.72,2.9-.09.02,1.36-.8,1.14.58-26.24,9.31-49.97,23.93-71.08,43.01-12.74,11.52-23.49,24.38-33.71,38.16-6.51,8.77-11.19,18.03-14.26,27.99-.72.28-.86-.8-.65-1.19,1.03-1.93.23,2.55-.56,4.79-10,18.55-20.59,37.56-34.57,53.33-23.01,25.96-58.7,34.76-91.63,26.83-3.01.38-5.16-.2-6.44-1.75-46.42-7.44-85.21,23.24-78.54,71.95.37,2.68.98,4.15,2.44,4.78,1.5.43,2.07,1.69,1.73,3.77l9.82,42.55-1.69,1.59c-2.75,3.84.5,16.44,3.22,23.99l5.86,16.28-16.6-9.66c-22.04-12.83-42.44-26.27-61.53-43.49-20.9-18.85-38.86-41.14-50.65-67.17-19.3-42.58-28.93-88.86-28.15-135.73.73-44.18,12.01-110.79,24.25-153.73,6.76-23.71,12.53-46.78,16.92-71.97l-13.35,20.45c-14.59-28.97-24.75-57.27-25.83-88.23-.7-30.62,5.16-61.02,16.35-89.76,1.08,3.05.22,5.57.27,7.95-.17,3.83-.39,7.57-.67,11.22v13s.68,10.17.68,10.17c.47,19.14,5.35,37.85,13.45,55.64,3.18,6.99,7.44,12.91,12.59,18.39,1.98,2.11,4.62,2.25,6.77.28l15.68-14.36c19.51-21.99,32.73-45.34,55.24-68.65l17.28-17.89c3.43-3.56,4.27-10.08,4.67-15.23,3.74-48.11-.13-102.74-18.02-147.57-1.44-3.62-4-5.84-6.17-7.83-2.31.21-2.48.01-3.63-1.63-2.36-.98-5.95-2.8-4.51-5.62,5.16-4.91,10.51-12.09,17.25-10.6,2.09.46,4.81,2.55,6.5,5.23,7.56,11.95,13.63,24.29,19.46,37.42,9.45,21.26,19.56,41.24,32.02,60.91,5.04,7.95,9.09,15.82,14.79,23.26,2.15,2.8,4.76,4.15,8.43,2.6,14.3-6.02,28.31-10.05,43.66-13.49,51.91-11.62,105.27-10.41,156.39,4.27,16.11,4.63,30.26,10.71,46.14,18.87-1.46-8.83-8.52-13.72-15.26-19.51,12.75-4.48,25.8-5.2,39.48-6.99,49.33-6.48,97.84,1.12,142.77,22.81,33.93,16.39,65.03,38.4,91.27,65.38,13.76,14.15,25.24,28.69,36.86,44.34,8.37,11.27,14.79,22.82,20.36,35.73,4.95,11.49,9.71,22.63,11.75,35.19,3.23,19.96,3.91,39.6,5.2,59.84l2.33,36.64c1.12,17.54,6.55,33.65,12.9,50l18.76,48.28c8.22,23.95,10.82,48.36,8.39,73.52-2.03,20.95-4.77,41.12-12.66,61.71-5.49-21.56-11.89-41.08-21.95-59.93l-17.1-32.01c-13.2-22.36-30.14-41.27-50.48-57.44-15.38-12.23-30.92-22.78-48.82-31.21-32.29-15.2-66.64-24.3-102.37-25.62l-29.22-.41Z"/>
        <path class="cls-5" d="M139.13,36.14c-.52.29-1.35.05-1.57.25-.24.21-.3,1.06-.17,1.62l7.3,31.47c9.17,39.52,8.86,83.46,6.75,123.96-.2,3.88-1.81,7.02-4.67,9.62-13.36,12.13-24.2,25.43-35.19,39.8-14.72,19.24-28.64,38.11-44.39,56.61-10.57-19.85-18.54-40.09-20.85-61.49-.59-.74-1.15-1.49-1.58-2.32-1.93-3.68-2.49-24.93-1.32-29.49,1.46-1.87,2.32-4.27,2.58-7.18.95-12.69,1.94-25.54,5.44-37.82,2.18-7.64,6.37-14.68,10.46-22.05l32.07-57.88c9.47-17.09,20.03-32.63,32.17-47.76l4.83-4.6,3.79,3.27c3.01.47,3.27,2.99,4.35,3.98Z"/>
        <g>
          <path class="cls-2" d="M13.62,208.53c.59-.15,1.06-.25,1.09-.17.82,1.97-1.34,3.68-.24.34,2.58-7.81,8.48-6.37,13.24-1.4-2.6,18.11-5.27,36.2-8.03,54.27.38,6.97.82,13.38,1.33,19.22l2.24,4.74c2.09,27.61,10.83,54.95,24.19,78.92l10.29-15.76c3.49-.83,4.54-.36,3.77,3.96-5.54,28.2-12.31,56.04-20.32,83.51-21.58,87.78-31.85,173.8,2.48,260.54,23.97,60.54,73.08,99.42,128.42,128.76-3.56-8.59-6.21-17.44-7.95-26.56-1.19-5.09-.28-8.03,2.74-8.84l2.31-.1,22.19,34.62c51.44,72.09,144.57,106.57,231.35,91.12l-7.14-4.72c-11.96-11.67.87-8.75,10.83-5.88,56.24,22.91,115.77,32.34,176.03,21.44,38.14-6.9,68.2-22.87,90.69-54.84,1.68-1.79,5.38-5.58,7.87-4.99,8.35,1.98-.38,20.63-4.23,24.13,14.85-.64,27.49-8.21,35.03-21.15-13.01-5.73-24.15-15.25-32.22-26.94-10.9-18.29-22.74-36.08-35.54-53.38-15.36-16.81-33-31.53-49.78-45.22-34.88,33.69-70.55,67.71-111.75,97.06-58.99,42.02-141.18,51.4-202,8.19-32.67-25.87-60.13-56.86-80.26-93.83l-15.74,17.19c-4.96,1.16-5.79-5.62-5.67-9.48.71-23.74,25.98-41.13,48.61-39.41,8.04.61,16.29,4.48,6.46,11.2-5.61,2.1-11,4.64-16.17,7.61,27.7,51.99,69.72,103.47,131.01,113,55.21,8.59,98.16-10.21,139.17-43.11l2.35.77,1.28-3.47c32.69-26.03,64.32-53.81,95.49-81.36,2.95-11.69,4.63-23.78,5.03-36.27-.29-8.83.71-17.19,3.01-25.07l1.46-.5c1.59,2.23,2.06,5.37,1.4,9.41,4.87-.33,7.62.99,8.23,3.97l1.94.84-3.54,42.93c.07,2.82.66,4.14,2.77,6.03,25.74,20.85,51.43,43.21,69.53,70.15l.62,4.18,2.17-.28,17.57,28.52c12.04,15.5,25.06,25.1,45.61,24.79,29.18-.45,46.51-29.14,54.83-54.36,19.14-58.02,9.63-112.27-7.2-166.59-22.81-63.01-61.59-113.44-123.05-141.11-60.06-27.04-121.5-29.72-184.58-11.55-57.77,16.63-100.17,57.5-132.71,103.63-4.48,1.83-6.23-1.17-3.17-3.85-.73-2.79-.59-5.21.43-7.27,21.62-44.74,65.82-84.36,112.7-101.83.86-.32,1.84-.35,2.85-.37s2.06.12,3.09.3c.66-.78,1.35-1.52,2.13-2.16s1.51-1.22,2.36-1.52c20.15-7.02,50.67-15.3,71.8-14.7,1.97.06,3.8.91,5.52,1.82l26.35-.06.79-1.56c81.87,2.62,162.78,44.69,205.57,115.48,15.69,26.46,28.25,54.97,37.69,85.52,11.56-39.47,15.98-82.72,3.47-122.6l-24.37-63.88s-2.29-8.04-6.87-24.13c-3.18-29.88-5.52-60.24-7.01-91.07-1.88-35.04-16.97-67.7-37.79-95.45-36.8-49.07-80.94-87.31-138.27-110.85-51.96-21.33-109.07-23.27-162.68-10.17,3.28,2.03,13.46,12.95,12.52,16.4-.8,2.91-1.41,4.29-4.58,2.75-75.75-38.6-167.62-37.79-245.95-7.71-4.52-.6-7.99-3.38-10.39-8.34-20.67-31.15-37.53-65.11-52.97-99.31-3.22-6.52-7.02-12.75-10.8-18.85-5.65-9.13-14.75.6-19.31,5.65l-2.24-.61c.63.52,1.3,1.44.93,1.87-10.87,12.69-21.76,25.92-30.09,40.93-16.75,28.76-32.64,57.96-47.68,87.62l-2.69,1.87c-6.04,4.79-10.29-2.46-7.86-8.54-3.73-2.98-4.31-7.34-1.73-13.1l33.38-61.98c13.84-25.7,33.83-57.83,57.64-73.2,11.71-7.56,25.77-4.99,34.34,5.56,3.87,4.76,6.91,9.66,9.87,15.16,16.87,31.28,27.49,61.28,47.28,91.65,2.37,3.63,4.27,7.01,6.54,11.11,25.79-9.63,51.75-14.76,78.94-17.83,44.6-5.04,88.15-.68,131.14,12.31,47.67-10.96,90.96-15.94,139.7-8.92,4.63-5.5,6.56-11.73,9.48-17.95,7.26-15.48,13.4-30.75,19.05-46.9,3.66-10.46,7.76-20.3,13.15-29.76,4.83-8.48,12.63-13.18,22.7-11.76,14.8,2.08,32.39,20.47,40.1,32.92l22.57,36.47c14.74,28.18,24.92,57.7,33.66,88.28,4.26,14.9,7.76,28.8,9.78,44.3l28.65,34.34c15.01,20.05,27.58,41.24,35.76,65.02,6.04,17.56,8.45,35.24,9.52,53.79l3.64,63.03c.93,16.1,4.65,30.5,11.03,45.22,8.55,19.72,16.16,38.94,22.17,59.73,15.5,53.59,5.65,112.22-15.9,163.31l2.57,46.85c-.46,29-5.96,56.86-16.98,83.58-8.46,20.5-22.56,37.48-41.99,48.08-12.3,6.71-25.81,7.24-39.9,5.72-9.26,19.82-27.46,32.14-48.97,34.28l-18.44.59c-24.27,23.39-62.26,34.26-95.56,37.4-45.02,4.25-94.87,1.42-136.77-15.77-2.56-1.05-5.14-1.81-8.28-1.06-55.89,13.35-114.23,8.36-167.01-14.8-15.9-6.98-30.13-15.79-44.3-25.62-12.02-8.34-22.24-18.18-32.67-28.24-4.09-3.95-7.92-6.64-13.19-9.04-40.74-18.54-87.5-48.14-117.75-81.14-16.24-17.71-29.77-37.31-39.33-59.59-15.48-36.07-24.47-74.16-27.31-113.28l-.2-33.23c.85-25.1,2.77-49.6,7.86-74.13l11-53.01c3.6-17.34,9.36-33.61,14.4-50.46,1.55-5.17.76-8.13-1.85-12.85-16.11-29.19-26.63-60.79-28.24-94.41-1.24-25.86,3.38-50.37,10.45-74.74Z"/>
          <path class="cls-6" d="M707.35,173.23c-15.09-10.75-29.8-19.78-45.96-28.9-4.09-20.53-7.8-40.8-7.98-62.09l3.18-46.18c12.3,11.85,20.81,24.61,28.84,38.77,20.56,36.28,34.29,75.11,43.02,115.63l-21.09-17.23Z"/>
          <path class="cls-3" d="M648.82,136.63c-16.07-7.18-31.42-14.42-49.35-18.52,9.31-16.29,15.95-32.69,22.45-49.91l14.81-39.19c.7-1.85,2-4.46,4.3-4.48,4.86-.03,9.38,3.16,11.6,7.52-5.1,8.7-6.97,17.34-7.65,27.22-2.84,25.49-.42,50.14,3.84,77.35Z"/>
        </g>
        <path class="cls-2" d="M46.02,199c-1.34,12.97-1.09,25.99.31,38.98l-2.81,3.38c-2.29-3.54-3.56-7.59-3.55-12.2l.07-20.95c.02-4.82,1.32-9.02,1.12-14.22l3.51,10.46c.18-2.33-.18-4.42,1.35-5.44Z"/>
        <path class="cls-2" d="M36.97,210.2c0-3.73-.63-7.67.67-11.22l.24,10.17c.02.75-.58,1.07-.9,1.05Z"/>
        <path class="cls-2" d="M37.65,233.36c-1.31-3.17-.68-6.78-.68-10.17,2.02,2.96.59,6.82.68,10.17Z"/>
      </g>
    </g>
  </g>
</svg>