<?xml version="1.0" encoding="UTF-8"?>
<svg id="Layer_2" data-name="Layer 2" xmlns="http://www.w3.org/2000/svg" viewBox="0 0 851.56 926.74">
  <defs>
    <style>
      .cls-1 {
        fill: #f6e3e4;
      }

      .cls-2 {
        fill: #58291c;
      }

      .cls-3 {
        fill: #603f46;
      }

      .cls-4 {
        fill: #d49561;
      }

      .cls-5 {
        fill: #5a2a1c;
      }

      .cls-6 {
        fill: #dc8e93;
      }

      .cls-7 {
        fill: #f7e3e4;
      }

      .cls-8 {
        fill: #db8e94;
      }

      .cls-9 {
        fill: #562a1f;
      }

      .cls-10 {
        fill: #bf969e;
      }

      .cls-11 {
        fill: #fefefe;
      }

      .cls-12 {
        fill: #5e2f20;
      }

      .cls-13 {
        fill: #957b80;
      }

      .cls-14 {
        fill: #d29360;
      }

      .cls-15 {
        fill: #be959d;
      }
    </style>
  </defs>
  <g id="Layer_1-2" data-name="Layer 1">
    <g id="face2">
      <path class="cls-5" d="M165.89,15.82l-3.57-2.8c-4.43-7.9-14.16-12.61-22.85-10.56-6.55,1.54-16.09,6.34-16.66,8.2-.53,1.72-2.06,3.92.85,5.28,5.45-5.21,12.08-8.28,18.83-9.13,7.14-.9,11.08,3.18,12.59,9.74,1.04,4.52,2.42,9.24-.6,13.12l-2.24.17c-5.54-12.14-12.49-13.17-21.38-2.83l-2.45-.38c-1.73,4.63-4.65,8.77-8.75,12.42l-15.01,20.11c-16.79,28.74-33.01,57.71-48.64,86.93-8.63,14.84-11.8,34.62-12.35,51.66-1.08,33.56,2.36,65.97,20.21,95.17l54.04-69.27s8.73-9.49,26.2-28.47c1.73-18.83,2.56-37.71,1.93-56.62-1.17-34.65-7.43-63.55-15.03-96.98-.58-2.57-.41-5.24-.17-7.85,4.71-2.07,11.29,6.8,12.91,11.1,17.05,45.4,18.76,97.31,16.52,145.46-.32,6.99-1.93,11.8-6.75,16.73-25.08,27.42-49.03,56.05-71.85,85.9-1.47,1.59-2.97,3.15-4.56,4.62-3.24,3-11.68,10.58-15.5,10.84-2.88.19-11.96-13.68-13.97-17.11-15.46-26.49-17.15-59.4-15.84-89.32-20.11,56.89-15.97,118.22,18.78,168.17,3.74-9.09,8.66-17.1,14.74-24.02,5.88-.96,6.95,4.77,3.21,17.19-5.5,22.74-10.93,44.98-16.29,66.71l-2.29.96c-1.77-.91-2.1-2.54-2.12-5.74-5.25,3.45-4.38,9.86-8.12,13.1l-.97-6.28c-8.34-.74-9.43,10.72-10.76,21.07,1.56,5.15.26,10.01-3.03,14.08-4.04,17.91-5.5,35.68-7.47,53.63l-1.86,17.02c-.42,3.83.22,7.46-.94,11.15-.82,10.25,1.37,20.39-1.12,30.1l.06-4.19c-.88-8.51-.84-17.48-.02-25.99l.47-15.67c2.9-29.38,5.62-58.16,13.04-86.85l13.35-51.59c.86-3.34-1.67-6.65-3.52-9.3-14.38-20.55-25.89-42.35-31.81-67.03-11.6-48.37-2.63-101.52,17.18-147,14.34-32.92,31.34-63.54,49.08-94.71,13.32-23.42,36.15-60.56,57.93-72.97,14.47-8.24,29.27-2.25,36.55,12.09Z"/>
      <path class="cls-4" d="M154.47,29.66l13.46,28.91c6.86,17.91,15.9,33.82,25.66,50.3,8.56,14.46,16.44,28.74,27.46,42.4,82.6-34.7,171.85-38.83,253.84,1.95-.8-7.28-10.22-17.04-12.77-17.38-.82-.11-.57-.88.03-1.11l1.92-.72c42.53-9.26,86.56-11.97,128.7.78,14.82,4.49,28.89,9.28,42.88,16.23,53.64,26.62,98.72,67.61,129.78,118.81,10.93,18.02,18.31,37.3,22.36,57.73,9.47,47.8-2.82,85.09,20.45,139.72,14.24,33.42,29.52,72.58,25.26,108.62-2.97,25.13-8.19,49.04-17.25,73.69-8.98-99.97-79.86-175.59-175.76-199.6-17.5-4.38-34.38-7.27-51.82-8.12l-3.44-1.37c-12.57-15.23-23.68-34.78-27.63-54.22l-12.86-77.32c-5.26-27.58-14.18-56.72-25.26-81.87-3.68-8.35-18.6-37.48-30.11-26.32-5.79,5.61-1.61,31.31-.06,39.69,9.1,39.55,16,79.6,19.73,120.05,3.01,32.62-2.69,71.75-24.48,96.77-41.97,14.2-82.13,46.78-105.6,84.92l-9.57,19.13-.42,4.85c-23.28,47.59-58.61,85.66-115.15,80.5-3.01.79-5.32.48-6.93-.92l-20.63,1.88c-34.22,5.53-55.6,37.71-51.72,71.39l-1.08,3.89c.77-.07,1.98.01,2.05.49,1.57,10.99,3.04,25.85,3.3,36.86.74,2.39.21,3.9-1.6,4.53-.04-.1-.86-.31-1.03-.02-.21.34-.25,1.5-.09,2.01.31,13.07,4.54,24.34,8.74,38l-48.08-29.04c-35.46-23.96-64.44-54.09-81.12-93.88-6.28-15-11.57-29.57-15.49-45.48-16.78-67.98-6.1-138.7,9.84-205.46l6.52-27.3c5.35-18.09,9.89-35.86,12.25-54.66.13-1.01-2.09-1.58-2.56-1.16l-1.95,1.73c-5.43,7.51-8.74,15.64-12.9,24.97-8.17-10.78-13.94-22.46-19.5-34.96-9.4-21.14-14.55-43.23-14.18-66.73.46-29,5.63-57.2,17.25-84.36-3.85,39.85-2.01,88.84,26.93,118.22,8.82-5.48,16.1-11.89,22.57-20.08l37.03-46.9,27.92-31.07c3.85-4.29,8.05-8.31,8.6-14.58,3.11-35.48,1.43-70.46-4.89-105.53-2.69-14.96-5.69-28.92-11.17-42.96-2.07-5.31-6.64-9.08-11.05-11.85-2.98.41-3.35-4.83-2.44-7.07,2.57-2.55,5.02-5.34,8.58-7.39,5.04-2.91,10.35-1.26,13.47,3.85l4.02,6.58Z"/>
      <path class="cls-8" d="M130.85,33.7c15.49,52.32,21.11,107.11,15.02,162.25-12.95,12.68-24.12,25.66-35.19,40l-41.34,53.55-6.21,7.4c-18.17-32.56-25.27-69.51-20.68-106.99l2.99-24.43c3.56-11.61,9.57-21.76,15.41-32.39l31.56-57.45c9.95-18.12,21.67-34.78,36-49.02,2.24,2.11,1.79,4.87,2.44,7.07Z"/>
      <g>
        <path class="cls-1" d="M689.7,731.46l-1.64-2.95.1-10.51c-2.55-15.14-5.8-30.15-9.77-45.04-2.71-13.07.7-25.55,6.21-37.4,7.67-14.29,13.56-29.2,17.67-44.73,1.76-12.46,1.33-24.86-1.31-37.2l-.25-15.83-2.01-2.73c-2.71-48.22-52.22-63.93-94-64.7-46.39-.86-109.86,13.19-124.89,63.1l-2.6,1.11c-3.3,23.12-4.74,47.27,7.88,68.22l31.11,52.61c8.86,15.43,7.63,31.88,5.3,49.07-.78,5.79-3.17,23.43-5.88,26.91-.51.65-1.12,1.22-1.76,1.77-30.64,7.62-62.7,9.2-93.99,1.46-21.99-5.44-42.05-13.49-62.82-22.16l-44.52-18.57c-15.65-6.53-41.28-10.44-40.94-9.61-.2-.49.23-1.24.82-1.61l17.7-10.89c-11.42-2.77-23,.33-34.11,4.4-16.82,6.17-30.64,17.35-38.64,33.33-3.23,6.46-5.4,13.09-4.92,20.66l19.52-19.83c-2.8,12.03-4.47,22.55-2.85,34.14,1.49,10.67,2.78,21.47,7.69,31.34,7.12,14.3,17.74,26.8,30.81,35.93,9.4,6.56,19.81,10,30.66,13.47,22.39,7.17,44.72,10.64,68.42,12.9,52.42,5.01,104.22,5.55,156.94,2.44l130.01-13.64,58.44-12.5c7.1-1.52,13.34-7.59,12.37-15.74-1.67-13.99-1.36-28.04,6.72-40.24l12.62.28-2.88,9.48c-3.07,10.13-4.42,19.96-2.94,30.57,4.56,32.59-15.73,64.01-47.57,67.92,2.32-7.31,5.78-12.87,3.54-20.02l-14.62,14.89c-16.94,18.63-37.7,31.15-62.14,37.96s-51.25,8.96-77.81,8.89c-33.26-.09-64.98-5.61-96.1-17.14l-32.14-10.2c3.73,6.24,8.64,8.88,13.73,13.14-56.81,8.75-110.78,2.9-160.81-26.73-27.69-16.4-50.49-38.42-67.18-65.8l-19.67-36.88-3.75-41.89c4.61-19.18,10.36-40.47,24.58-55.14,12.1-12.48,32.02-19.89,48.85-22.02,3.8-1.36,8.15-1.13,12.76-.97,27.98.98,54.49-8.76,73.63-29.37,15.18-16.35,25.65-35.39,36.11-54.1.27,1.73-.33,3.56,1.12,4.9,31.17-45.9,73.68-85.89,127.37-100.97,26.14-7.34,52.47-11.17,79.77-11.42,63.67-.59,131.85,29.01,173.43,77.52,31.32,36.55,52.53,86.35,50.98,134.7-.51,15.97-3.59,31.18-10.99,45.23-5.57,10.57-13.25,20.48-24.26,25.6-24.23,11.28-53.11,4.11-77.09-5.42Z"/>
        <path class="cls-11" d="M540.81,741.15c1.36-1.68,5.57-4.27,7.79-5.35,6.71-3.26,15.21-6.48,22.28-9.12,3.78-2.25,7.53-3.07,11.24-2.44l24.77-9.38c18.45,5.37,35.16,13.64,53.2,20.47l50.73,19.23c.78.29,1.53.21,1.79.87.5,1.26-14.3,18.53-22.19,22.38-6.79-.05-11.83-11.09-20.86-15.58-14.64,4.34-28.74,6.44-44.01,7.34l-80.41,8.2c29.18,1.96,56.93,1.51,85.44-.06,12.66-.7,24.24-2.81,35.99-7.33,8.65,9.86,17.89,22.31,28.49,16.94,9.2-4.66,12.67-11.89,13.27-8.52l.51,16.17c.08,2.46-.9,5.86-3.88,6.4l-70.99,12.92c-49.79,6.79-98.9,11.16-149.32,12.61-42.51,1.22-83.79-.62-125.96-4.98-22.88-2.36-44.5-6.66-65.86-14.16-9.58-3.36-17.95-8.15-25.08-15.24,2.69-12.17,5.51-23.85,12.77-34.25l16.02,15.54c4.32,4.19,9.76,4.87,15.04,1.95l17.95-9.92,12.63,12.45c15.36,15.15,37.83,7.1,59.44,2.4l20.28.76c-7.41-2.63-15.12-5.5-23.26-4.94l-28.19,1.95c-7.11.49-13.81-.7-18.83-5.67l-12.48-12.38c-12.82-12.71-19.87,2.28-34.23,5.71l-16.92-16.69c-13.42-13.24-20.82-31.34-19.06-50.78,14.33,1.1,27.87,5.01,41.34,10.59l64.27,26.58c55.7,23.04,109.37,24.83,166.29,5.31Z"/>
        <path class="cls-7" d="M588.67,441.86c-22.39-1.1-44.89.26-67.03,5.92l-37.08,9.48c-1.09-.33-1.17-1.35-.28-1.65,21.24-27.88,25.46-64.13,22.47-98.85-3.15-36.52-9.71-71.61-17.64-107.25-3.25-14.59-5.04-28.79-4.25-43.36.25-4.52,3.84-8.36,7.09-9.5,11.35-3.96,25.19,18.34,29.6,30.27l17.52,47.38c5.68,19.32,8.3,38.57,11.61,58.42l8.59,51.51c3.93,23.55,16.65,39.83,29.4,57.63Z"/>
        <path class="cls-15" d="M515.73,733c-.72-.32-1.3,0-1.87.14,3.85-17.16,7.54-34.31,7.36-52.29-.11-10.77-4.34-20.77-9.79-29.92l-27.2-45.65c-8.38-14.07-11.94-28.98-11.32-45.47.34-9,1.03-17.46,4.3-25.24-1.02,17.12,9.37,38.06,22.16,48.46l14.35,11.68,14.83,15.33c23.27,17.84,50.62,29.27,79.83,32.73l-5.81,57.96-33.28,12.81c-17.85,7.49-35.37,14.43-53.56,19.46Z"/>
        <path class="cls-10" d="M689.7,731.46l-74.48-29.61,3.4-37.76,1.48-22.62c18.81-9.01,35.75-20.09,50.37-34.75,17.75-17.8,29.81-44.21,30.26-68.93l4.28,29.78c4.66,36.17-18.56,59.68-24.55,85.93-5.39,23.6,13.58,50.03,9.26,77.95Z"/>
        <g>
          <path class="cls-12" d="M165.89,15.82c5.05,6.39,8.46,13.93,12.06,21.71l15.82,34.29,32.48,57.3c.39.69,1.34.35,1.74.2l24.39-8.75c62.17-18.59,123.88-20.39,186.33-1.78,4.61,1.37,9.12,1.12,13.77-.09,37.8-9.77,83.5-14.91,122.51-6.45,10.2-19.26,17.52-39.15,25.79-59.2l11.98-29.05c1.69-4.11,4.18-7.59,7.03-10.99,15.46-18.51,40.57,3.52,53.27,21.44,10.81,15.25,20.15,30.57,28.37,47.62,17.87,37.03,29.96,76.1,37.36,116.52,1.04,5.71,2.01,8.96,5.97,13.28,18.05,19.7,33.4,41.3,45.5,65.24,11.05,21.86,17.21,44.26,18.47,68.76l3.02,58.99c.93,18.06,5.61,34.15,11.94,50.91l18.65,49.34c7.69,24.1,10.84,48.35,8.4,73.79-2.73,28.39-9.24,55.43-18.98,82.03l-13.17,29.87c-5.38,12.19-9.1,24.48-16.21,35.88-7.42,11.89-17.49,21.43-29.9,28.07-2.41,1.29-6.69,1.09-8.31,3.62-4.34,6.75-6.94,14.55-8.52,22.54-2.9,14.65,9.47,38.56-12.93,72.02-12.93,19.31-32.73,31.55-56.25,32.55-4.37.18-7.63,1.77-11.12,4.13l-20.89,14.1c-59.11,30.84-150.5,28.94-212.99,5.06-35.05,8.43-70.09,9.37-105.84,3.82-21.22-3.29-41.34-10-60.76-19.02-16.07-7.47-30.25-17.04-44.2-27.74-12.53-9.61-23.03-20.87-33.14-32.72-3.56-4.17-6.89-6.17-11.88-8.45-33.06-15.12-63.82-34.51-91.23-58.44-20.04-17.51-36.1-37.19-48.34-60.87-20.34-39.35-30.89-82.72-32.51-126.27-.04-35.06,3.12-68.72,8.64-104.04.85-5.42,2.13-10.08,4.12-14.93.27-6.13,2.55-26.3,7.86-29.23,2.15-1.19,5.06-1.38,6.34.87,3.56-7.19,8.55-12.6,9.42-.79l.57,3.39c-17.44,78.46-27.32,156.61,1.68,233.67,24.94,66.27,71.89,100.76,128.84,132.19-4.05-11.49-6.38-23.2-6.99-35.15,1.11-2.27,2.54-2.81,3.14-.21.65-.57,1.35-.72,2.08-.35,22.4,48.03,51.95,86.1,103.01,110.5,42.77,20.44,91.07,24.98,137.59,17.87-2.12-1.54-9.95-8.01-10.03-10.08-.07-1.97.9-2.74,2.74-3.31l52.41,16.81c46.53,12.32,99.55,14.33,146.42,2.74,34.93-8.64,57.39-27.44,80.09-52.68,1.6-1.19,2.77-1.35,4.16.14,2.85,3.08-.54,13.8-2.16,17.41,25.82-4,42.76-29.28,43.1-54.76-1.96-16.82-1.56-32.6,4.49-48.43-.17-.43-8.68-1.05-8.96-.68-7.51,10.21-6.92,28.72-5.59,40.74-.15,8.39-6.1,13-13.38,15.5l-59.19,12.67-130.19,13.66c-60.46,2.85-122.68,3.42-182.51-5.49-39.48-5.88-77.06-15.18-100.15-49.79-13.44-20.14-17.21-47.18-12.52-70.67l-13.7,13.92c-2.08.95-3.29,1.12-4.33-.98-2.56-5.18,5.03-21.77,8.17-26.54,12.31-18.7,34.1-31.45,56.25-33.9,5.03-.56,17.49-1.9,15.41,4.85l-13.84,8.67c10.72,1.63,21.53,4.06,31.92,7.59l70.82,29.11c41.31,17.49,85.43,23.85,129.27,13.03l5.29.8c.78-1.85,1.39-2.26,1.87-.14,4.55-.68,31.32-4.63,33.56-1.29.77,1.16.51,2.76-.25,3.89-3.16,1.64-5.91,3.49-8.23,5.54-.82.82-1.66,1.61-2.58,2.28s-1.8,1.24-2.79,1.61c-50.15,18.27-109.83,13.9-158.73-6.15l-74.85-30.74c-10.53-3.5-21.2-6.23-32.01-8.19l.86,1.71c-1.99,27.38,16.68,45.35,34.55,62.04,6.31-2.39,12.47-5.45,18.48-9.18,5.52-2.25,9.84-.93,14.33,2.32,6.06,6.21,12.4,12.05,19.02,17.53l3.3,1.3c12.67.78,25.37.4,38.11-1.13,3.72-.82,21.7,2.81,23.2,4.77,1.3,1.7.43,2.7-1.03,4.12l-18.89-.74-26.38,5.64c-23.02,2.93-31.43-4.24-46.44-19.88l-18.68,10.12c-6.08,2.07-9.53.85-14.53-2.74l-14.59-14.13c-2.84,2.87-4.66,7.69-6.2,11.82-.98,2.61-5.63,17.28-5.48,18.46.16,1.3,14.39,9.94,17.22,11.16,21.73,9.39,48.58,14.51,72.19,16.79,116.43,11.2,234.42,2.57,346.24-20.67,2.61-1.47,1.82-16.95,1.28-17.68-15.72,17.16-30.2,6.18-40.1-9.46-8.41,4.03-18.65,6.17-28.05,7-29.5,2.6-59.46,2.32-89.09.92-4.24-.24-4.93-1.3-3.32-4.34l95.12-9.53c19.1-3.88,28.65-5.82,28.65-5.82,6.03,3.34,11.39,7.75,16.09,13.24.94.73,3.25,2.44,4.35,2.33,3.09-.31,17.14-15.78,19.69-19.4-33.81-13.12-68.13-26.36-102.96-39.74l-22.65,8.83-2.04-1.37c-3.79.72-6.31-.13-6.15-4.53.27-7.21,20.23-15.91,26.71-18.43l3.19-8.94,2.75-31.51c2.77-12.55,9.18-8.89,8.77,1.89l1.24,1.35,1.32.2c-.48,12.01-1.22,24.14-2.24,36.39l71.62,28.47.39,2.31,3.4-.82c34.01,13.35,76.52,18.79,95.63-19.26,30.11-59.94-3.31-142.62-47.41-187.73-61.98-63.41-148.57-79.38-233.15-59.05-57.9,13.92-101.61,52.57-134.67,100.77-5.06,4.29-6.09.55-4.1-4.04-.66-.43-1.59-1.17-1.39-1.69,12.72-32.64,44.34-64.63,74.03-83.78,9.2-5.94,27.59-16.96,37.78-19.02,1.6-.32,3.2-.07,4.74.45.11-1.18,1.04-2.11,2.82-2.78,17.75-4.92,35.92-9.16,54.51-12.74,9.45-1.26,36.97-4.48,44.25-1.33.89.38,1.72.9,2.54,1.45.98-.46,1.97-.89,2.99-1.17s1.98-.51,2.95-.47c51.82,2.48,108.94,26.16,147.9,60.09,41.49,36.12,67.5,85.32,74.94,139.79,17.66-49.93,20.52-99.53-1.25-148.03-11.92-28.03-23.41-56.01-24.73-86.79-.89-50.86-2.31-94.9-31.16-139.94-63.08-98.46-177.91-160.2-294.29-129.51,2.85,1.46,11.7,13.9,10.68,15.97-1.33,2.69-2.3,3.73-5.54,1.79-79.29-39.25-170.07-33.81-250.46-.65-12.54-15.41-23.46-32.01-32.78-49.8-12.77-24.08-24.32-47.86-34.64-71.34l1.2-2.15c.95-24.05-11.48-26.52-30.4-12.07-8.76-3.15-1.77-8.06,2.87-11.24,14.88-10.17,29.6-5.14,38.94,9.47Z"/>
          <path class="cls-12" d="M13.63,574.85c-.67-.11-1.06-.86-1.06-1.94v-22.12c0-1.08.38-1.83,1.04-1.93l.02,25.99Z"/>
          <path class="cls-6" d="M716.88,185.14c-18.74-15.28-37.71-28.51-58.45-39.98-3.76-2.08-5.37-4.65-6.29-9.05-6.86-33.14-8-66.9-3.94-101.31,10.06,8.42,16.46,18.17,22.95,28.67,13.6,24.95,25.22,50.14,34.79,76.97,4.2,14.64,8.58,28.08,10.94,44.7Z"/>
          <path class="cls-14" d="M641.65,135.72c-15.06-8.34-30-15.11-47.75-19.09l25.09-61.35,13.7-31.88c4.73.48,8.32,3.63,10.93,7.52-5.32,15.68-7.7,31.28-7.46,48.01-.28,18.99,2.41,36.88,5.49,56.79Z"/>
        </g>
        <path class="cls-2" d="M246.89,645.76l-24.56,8.8c-27.9,9.99-38.14,34.17-44.96,61.09-.71,2.81-1.81,5.78-3.9,7.28-2.1-7.95-1.61-15.84-.17-24.32,6.02-35.41,38.79-58.76,73.6-52.84Z"/>
        <g>
          <path class="cls-9" d="M700.72,537.8c1.86,13.88-1.47,26.07-7.16,38.64-14.15,31.26-41.44,51.34-71.57,66.58l-1.29,19.78-2.09,1.29c-3.76,2.81-1.78-3.46-4.74-9.7-2.84,1.62-3.09,4.69-3.35,7.43l-1.04,10.9-1.49,18.39c-1.34,16.56-13.55,9.27-27.58,25.51-1.28,1.48-2.94,2.35-2.45,4.56.31,1.4,2.28,2.02,4.13,3.06l-41.31,16.91c-2.14-3.12,6.47-3.18,7.31-8.58l-24.27.31c-2.65.03-6.03,2.44-8.11.13l5.46-3.66c27.01-9.72,53.45-19.7,79.3-29.95l5.71-54.98c-35.66-4.58-70.9-21.08-93.84-48.23-19.25-13.97-40.5-35.36-35.14-61.61,2.8-6.66,4.3-13.88,8.84-20.28,19.04-26.86,51.3-39.05,83.55-43.6,35.64-5.04,77.51-3.27,106.76,18.39,15.78,11.68,24.69,29.6,24.35,48.73Z"/>
          <g>
            <path class="cls-3" d="M611.95,556.96l-2.74,71.98c-4.94.63-9.99-.18-15.24-1.54-22.44-5.81-43.61-15.37-62.17-30.36,11.14-.6,20.7.02,30.29-2.55,12.55-3.36,20.15-12.75,20.9-25.66.81-13.87-7.09-26.23-20.94-29.38-6.2-1.41-11.88,1.19-15.71,6.23-9.68,12.75,1.19,28.49-12.72,32.23-11.7,3.15-21.96-1.99-29.95-9.99-8.63-8.64-13.45-18.57-13.26-31.14.14-9,3.12-16.34,9.4-22.82,7.6-7.84,15.37-14.83,25.57-19.37,36.04-16.05,87.19-20.96,124.13-7.72,32.55,11.67,48.6,39.98,36.08,72.76-1.57,4.1-4.61,6.1-8,6.84-3.72.81-8.86.21-10.4-4.17l-1.37-16.34c-.38-4.53-3.74-8.53-7.23-9.65-4.69-1.5-8.93.01-12.27,3.23-11.45,11.05-13.5,28.56-3.8,41.46,3.05,4.06,8.22,6.83,13.15,6.75l15.67-.26c-8.74,11.6-19.21,19.81-30.13,27.89-6.6,4.89-13.26,9.25-21.66,11.59l-.18-47.15-2.47-24.16c-.14-1.33-2.01-2.05-2.78-1.93s-2.09,1.3-2.16,3.2Z"/>
            <path class="cls-13" d="M641.96,513.88c-23.55,4.53-46.93,5.2-70.24,1.94-10.1-1.41-24.48-4.77-24.91-11.56-.47-7.38,11.84-11.94,21.81-13.54,20.84-3.34,41.92-3.48,62.94-.93,9.98,1.21,25.68,6.04,26.17,12.6.43,5.64-7.79,9.95-15.78,11.49Z"/>
          </g>
        </g>
      </g>
    </g>
  </g>
</svg>